<svg xmlns="http://www.w3.org/2000/svg" xmlns:xlink="http://www.w3.org/1999/xlink" viewBox="0 0 107.5 85.38"><defs><style>.cls-1,.cls-207,.cls-209,.cls-211,.cls-213,.cls-216,.cls-218,.cls-222,.cls-225,.cls-226,.cls-228,.cls-232,.cls-233,.cls-236,.cls-239,.cls-241,.cls-248,.cls-253,.cls-254{fill:none;}.cls-2{fill:#de0209;}.cls-3{fill:#008e2f;}.cls-4{fill:#fe0;}.cls-5{clip-path:url(#clip-path);}.cls-6{fill:#ffef00;}.cls-7{fill:#fff000;}.cls-8{fill:#fff100;}.cls-9{fill:#fff101;}.cls-10{fill:#fff106;}.cls-11{fill:#fff10b;}.cls-12{fill:#fff110;}.cls-13{fill:#fff113;}.cls-14{fill:#fff116;}.cls-15{fill:#fff119;}.cls-16{fill:#fff11c;}.cls-17{fill:#fff11f;}.cls-18{fill:#fff121;}.cls-19{fill:#fff123;}.cls-20{fill:#fff225;}.cls-21{fill:#fff227;}.cls-22{fill:#fff229;}.cls-23{fill:#fff22b;}.cls-24{fill:#fff22d;}.cls-25{fill:#fff22f;}.cls-26{fill:#fff230;}.cls-27{fill:#fff232;}.cls-28{fill:#fff234;}.cls-29{fill:#fff236;}.cls-30{fill:#fff237;}.cls-31{fill:#fff239;}.cls-32{fill:#fff23a;}.cls-33{fill:#fff23c;}.cls-34{fill:#fff23e;}.cls-35{fill:#fff33f;}.cls-36{fill:#fff340;}.cls-37{fill:#fff342;}.cls-38{fill:#fff343;}.cls-39{fill:#fff345;}.cls-40{fill:#fff346;}.cls-41{fill:#fff348;}.cls-42{fill:#fff349;}.cls-43{fill:#fff34a;}.cls-44{fill:#fff34c;}.cls-45{fill:#fff34d;}.cls-46{fill:#fff34f;}.cls-47{fill:#fff350;}.cls-48{fill:#fff351;}.cls-49{fill:#fff353;}.cls-50{fill:#fff454;}.cls-51{fill:#fff455;}.cls-52{fill:#fff456;}.cls-53{fill:#fff458;}.cls-54{fill:#fff459;}.cls-55{fill:#fff45a;}.cls-56{fill:#fff45b;}.cls-57{fill:#fff45d;}.cls-58{fill:#fff45e;}.cls-59{fill:#fff45f;}.cls-60{fill:#fff461;}.cls-61{fill:#fff462;}.cls-62{fill:#fff463;}.cls-63{fill:#fff464;}.cls-64{fill:#fff465;}.cls-65{fill:#fff567;}.cls-66{fill:#fff568;}.cls-67{fill:#fff569;}.cls-68{fill:#fff56a;}.cls-69{fill:#fff56b;}.cls-70{fill:#fff56d;}.cls-71{fill:#fff56e;}.cls-72{fill:#fff56f;}.cls-73{fill:#fff570;}.cls-74{fill:#fff571;}.cls-75{fill:#fff573;}.cls-76{fill:#fff574;}.cls-77{fill:#fff575;}.cls-78{fill:#fff576;}.cls-79{fill:#fff678;}.cls-80{fill:#fff67a;}.cls-81{fill:#fff67b;}.cls-82{fill:#fff67c;}.cls-83{fill:#fff67d;}.cls-84{fill:#fff67e;}.cls-85{fill:#fff67f;}.cls-86{fill:#fff680;}.cls-87{fill:#fff681;}.cls-88{fill:#fff682;}.cls-89{fill:#fff683;}.cls-90{fill:#fff684;}.cls-91{fill:#fff685;}.cls-92{fill:#fff686;}.cls-93{fill:#fff687;}.cls-94{fill:#fff788;}.cls-95{fill:#fff78a;}.cls-96{fill:#fff78b;}.cls-97{fill:#fff78c;}.cls-98{fill:#fff78d;}.cls-99{fill:#fff78e;}.cls-100{fill:#fff78f;}.cls-101{fill:#fff790;}.cls-102{fill:#fff791;}.cls-103{fill:#fff792;}.cls-104{fill:#fff794;}.cls-105{fill:#fff795;}.cls-106{fill:#fff796;}.cls-107{fill:#fff797;}.cls-108{fill:#fff798;}.cls-109{fill:#fff899;}.cls-110{fill:#fff89a;}.cls-111{fill:#fff89b;}.cls-112{fill:#fff89c;}.cls-113{fill:#fff89d;}.cls-114{fill:#fff89e;}.cls-115{fill:#fff8a0;}.cls-116{fill:#fff8a1;}.cls-117{fill:#fff8a2;}.cls-118{fill:#fff8a3;}.cls-119{fill:#fff8a4;}.cls-120{fill:#fff8a5;}.cls-121{fill:#fff8a6;}.cls-122{fill:#fff8a7;}.cls-123{fill:#fff8a8;}.cls-124{fill:#fff9a9;}.cls-125{fill:#fff9aa;}.cls-126{fill:#fff9ab;}.cls-127{fill:#fff9ac;}.cls-128{fill:#fff9ae;}.cls-129{fill:#fff9af;}.cls-130{fill:#fff9b0;}.cls-131{fill:#fff9b1;}.cls-132{fill:#fff9b2;}.cls-133{fill:#fff9b3;}.cls-134{fill:#fff9b4;}.cls-135{fill:#fff9b5;}.cls-136{fill:#fff9b6;}.cls-137{fill:#fff9b7;}.cls-138{fill:#fff9b8;}.cls-139{fill:#fffab9;}.cls-140{fill:#fffaba;}.cls-141{fill:#fffabb;}.cls-142{fill:#fffabc;}.cls-143{fill:#fffabd;}.cls-144{fill:#fffabe;}.cls-145{fill:#fffabf;}.cls-146{fill:#fffac1;}.cls-147{fill:#fffac2;}.cls-148{fill:#fffac3;}.cls-149{fill:#fffac4;}.cls-150{fill:#fffac5;}.cls-151{fill:#fffac6;}.cls-152{fill:#fffac7;}.cls-153{fill:#fffac8;}.cls-154{fill:#fffbc9;}.cls-155{fill:#fffbca;}.cls-156{fill:#fffbcb;}.cls-157{fill:#fffbcc;}.cls-158{fill:#fffbcd;}.cls-159{fill:#fffbce;}.cls-160{fill:#fffbcf;}.cls-161{fill:#fffbd0;}.cls-162{fill:#fffbd1;}.cls-163{fill:#fffbd2;}.cls-164{fill:#fffbd3;}.cls-165{fill:#fffbd4;}.cls-166{fill:#fffbd5;}.cls-167{fill:#fffbd6;}.cls-168{fill:#fffbd7;}.cls-169{fill:#fffcd8;}.cls-170{fill:#fffcd9;}.cls-171{fill:#fffcda;}.cls-172{fill:#fffcdb;}.cls-173{fill:#fffcdc;}.cls-174{fill:#fffcde;}.cls-175{fill:#fffcdf;}.cls-176{fill:#fffce0;}.cls-177{fill:#fffce1;}.cls-178{fill:#fffce2;}.cls-179{fill:#fffce3;}.cls-180{fill:#fffce4;}.cls-181{fill:#fffce5;}.cls-182{fill:#fffce6;}.cls-183{fill:#fffce7;}.cls-184{fill:#fffde8;}.cls-185{fill:#fffde9;}.cls-186{fill:#fffdea;}.cls-187{fill:#fffdeb;}.cls-188{fill:#fffdec;}.cls-189{fill:#fffded;}.cls-190{fill:#fffdee;}.cls-191{fill:#fffdef;}.cls-192{fill:#fffdf0;}.cls-193{fill:#fffdf1;}.cls-194{fill:#fffdf2;}.cls-195{fill:#fffdf3;}.cls-196{fill:#fffdf4;}.cls-197{fill:#fffdf5;}.cls-198{fill:#fffdf6;}.cls-199{fill:#fffff7;}.cls-200{fill:#fffff8;}.cls-201{fill:#fffff9;}.cls-202{fill:#fffffa;}.cls-203{fill:#fffffb;}.cls-204{fill:#fffffc;}.cls-205{fill:#fffffd;}.cls-206{fill:#fff;}.cls-207,.cls-209,.cls-211,.cls-213,.cls-216,.cls-218,.cls-226,.cls-228,.cls-241,.cls-254{stroke:#000;}.cls-207,.cls-209,.cls-211,.cls-213,.cls-216,.cls-218,.cls-222,.cls-225,.cls-226,.cls-228,.cls-232,.cls-233,.cls-236,.cls-239,.cls-241,.cls-253{stroke-miterlimit:10;}.cls-207,.cls-226,.cls-232,.cls-239,.cls-253,.cls-254{stroke-width:0.32px;}.cls-208{fill:#d7b8a6;}.cls-209,.cls-233{stroke-width:0.33px;}.cls-210{fill:#f2dace;}.cls-211{stroke-width:0.55px;}.cls-212{clip-path:url(#clip-path-2);}.cls-213{stroke-width:0.31px;}.cls-214{fill:#bdb8b3;}.cls-215{fill:#351e00;}.cls-216{stroke-width:0.21px;}.cls-217{fill:#002a84;}.cls-218,.cls-225,.cls-236,.cls-248{stroke-width:0.22px;}.cls-219{fill:#2b73b5;}.cls-220{fill:#4e0000;}.cls-221{fill:#cfab8e;}.cls-222,.cls-232,.cls-233{stroke:#020000;}.cls-222{stroke-width:0.31px;}.cls-223{fill:#004789;}.cls-224{fill:#56abdd;}.cls-225{stroke:#010101;}.cls-226,.cls-236,.cls-254{stroke-linecap:round;}.cls-227{fill:#ffe79a;}.cls-228{stroke-width:0.11px;}.cls-229{fill:#ecb79c;}.cls-230{fill:#c3c1d0;}.cls-231{fill:#815940;}.cls-234{fill:#f1d8c9;}.cls-235{fill:#7a411f;}.cls-236{stroke:#220e00;}.cls-237{fill:#451f00;}.cls-238{fill:red;}.cls-239,.cls-248{stroke:#010000;}.cls-240{fill:#dfc5b7;}.cls-241{stroke-width:0.43px;}.cls-242{fill:#af8970;}.cls-243{fill:#af8b74;}.cls-244{opacity:0.8;}.cls-245{clip-path:url(#clip-path-3);}.cls-246{fill:#592300;}.cls-247{fill:#50282b;}.cls-248,.cls-254{stroke-linejoin:round;}.cls-249{fill:#fcbcda;}.cls-250{opacity:0.39;}.cls-251{clip-path:url(#clip-path-4);}.cls-252{clip-path:url(#clip-path-5);}.cls-253{stroke:#020202;}.cls-255{clip-path:url(#clip-path-6);}.cls-256{clip-path:url(#clip-path-7);}.cls-257{fill:#e4b86f;}</style><clipPath id="clip-path"><path class="cls-1" d="M23.66,51.51A32.14,32.14,0,1,0,55.8,19.37,32.14,32.14,0,0,0,23.66,51.51"/></clipPath><clipPath id="clip-path-2"><path class="cls-1" d="M30.49,68.62a30.29,30.29,0,0,0,50.91,0Z"/></clipPath><clipPath id="clip-path-3"><rect class="cls-1" x="46.73" y="0.57" width="8.14" height="5.92"/></clipPath><clipPath id="clip-path-4"><rect class="cls-1" x="58.45" y="26.83" width="1.34" height="0.94"/></clipPath><clipPath id="clip-path-5"><rect class="cls-1" x="48.45" y="29.81" width="1.84" height="1.02"/></clipPath><clipPath id="clip-path-6"><rect class="cls-1" x="4.38" y="20.91" width="1.45" height="8.05"/></clipPath><clipPath id="clip-path-7"><rect class="cls-1" x="10.64" y="19.02" width="2.04" height="8.36"/></clipPath></defs><title>Recurso 14</title><g id="Capa_2" data-name="Capa 2"><g id="Capa_1-2" data-name="Capa 1"><path class="cls-2" d="M14.82,26.62s-.75.08-1.39.08-1.07-.08-1.31.28a3.77,3.77,0,0,1-2.26,1.31,23.2,23.2,0,0,1-3.78.35c-.87-.08-.71-.43-1-.08s-.6.72-1.71.6-2.38,0-2.7-.68S.13,26.85.48,26.7a56.15,56.15,0,0,1,5.68-1,35.67,35.67,0,0,0,4-.51c.68-.16,1.32-.36,2.55-.6a22.3,22.3,0,0,1,2.22-.32Z"/><path class="cls-3" d="M15.34,18.91,12,19c-.16,0-1.91.16-1.27.56s.68,1,.08,1-4.29.2-5,.24-1.32.16-1,.44,0,.51-.43.47-2.11-.47-2.51-.55-.71-.2-.91.47a10.48,10.48,0,0,0-.48,3c.16.32.36.84,1.67.84A46.1,46.1,0,0,0,7,24.83c.91-.12,3.65-.56,4.68-.71a30.06,30.06,0,0,0,3.38-1Z"/><path class="cls-4" d="M15,22.69l-1.91.51a6,6,0,0,1-1.47.36,13.24,13.24,0,0,0-1.7,0c-.88.08-3,.4-3.34.36s-1.31-.2-1.39.23-.28.6-.68.56-2.5-.08-3-.2-1-.16-1.08.12-.19,2.46.16,2.46,4.61.12,4.69-.24.24-.55.75-.55a30.09,30.09,0,0,0,4.45-.2,15.94,15.94,0,0,0,1.75-.56A8.69,8.69,0,0,0,13.87,25c.35-.2.87.16,1-.52A8.53,8.53,0,0,0,15,22.69"/><g class="cls-5"><path class="cls-4" d="M23.66,19.37v0Z"/><rect class="cls-4" x="23.66" y="19.37" width="0.25" height="64.27"/><rect class="cls-4" x="23.91" y="19.37" width="0.25" height="64.27"/><rect class="cls-4" x="24.17" y="19.37" width="0.25" height="64.27"/><rect class="cls-4" x="24.42" y="19.37" width="0.25" height="64.27"/><rect class="cls-4" x="24.67" y="19.37" width="0.25" height="64.27"/><rect class="cls-4" x="24.92" y="19.37" width="0.25" height="64.27"/><rect class="cls-4" x="25.18" y="19.37" width="0.25" height="64.27"/><rect class="cls-4" x="25.43" y="19.37" width="0.25" height="64.27"/><rect class="cls-4" x="25.68" y="19.37" width="0.25" height="64.27"/><rect class="cls-4" x="25.93" y="19.37" width="0.25" height="64.27"/><rect class="cls-4" x="26.18" y="19.37" width="0.25" height="64.27"/><rect class="cls-4" x="26.44" y="19.37" width="0.25" height="64.27"/><rect class="cls-4" x="26.69" y="19.37" width="0.25" height="64.27"/><rect class="cls-4" x="26.94" y="19.37" width="0.25" height="64.27"/><rect class="cls-4" x="27.19" y="19.37" width="0.25" height="64.27"/><rect class="cls-4" x="27.44" y="19.37" width="0.25" height="64.27"/><rect class="cls-4" x="27.7" y="19.37" width="0.25" height="64.27"/><rect class="cls-4" x="27.95" y="19.37" width="0.25" height="64.27"/><rect class="cls-4" x="28.2" y="19.37" width="0.25" height="64.27"/><rect class="cls-4" x="28.45" y="19.37" width="0.25" height="64.27"/><rect class="cls-4" x="28.7" y="19.37" width="0.25" height="64.27"/><rect class="cls-4" x="28.96" y="19.37" width="0.25" height="64.27"/><rect class="cls-4" x="29.21" y="19.37" width="0.25" height="64.27"/><rect class="cls-6" x="29.46" y="19.37" width="0.25" height="64.27"/><rect class="cls-6" x="29.71" y="19.37" width="0.25" height="64.27"/><rect class="cls-6" x="29.96" y="19.37" width="0.25" height="64.27"/><rect class="cls-6" x="30.22" y="19.37" width="0.25" height="64.27"/><rect class="cls-6" x="30.47" y="19.37" width="0.25" height="64.27"/><rect class="cls-6" x="30.72" y="19.37" width="0.25" height="64.27"/><rect class="cls-6" x="30.97" y="19.37" width="0.25" height="64.27"/><rect class="cls-6" x="31.22" y="19.37" width="0.25" height="64.27"/><rect class="cls-6" x="31.48" y="19.37" width="0.25" height="64.27"/><rect class="cls-6" x="31.73" y="19.37" width="0.25" height="64.27"/><rect class="cls-6" x="31.98" y="19.37" width="0.25" height="64.27"/><rect class="cls-6" x="32.23" y="19.37" width="0.25" height="64.27"/><rect class="cls-6" x="32.48" y="19.37" width="0.25" height="64.27"/><rect class="cls-6" x="32.74" y="19.37" width="0.25" height="64.27"/><rect class="cls-6" x="32.99" y="19.37" width="0.25" height="64.27"/><rect class="cls-7" x="33.24" y="19.37" width="0.25" height="64.27"/><rect class="cls-7" x="33.49" y="19.37" width="0.25" height="64.27"/><rect class="cls-7" x="33.75" y="19.37" width="0.25" height="64.27"/><rect class="cls-7" x="34" y="19.37" width="0.25" height="64.27"/><rect class="cls-7" x="34.25" y="19.37" width="0.25" height="64.27"/><rect class="cls-7" x="34.5" y="19.37" width="0.25" height="64.27"/><rect class="cls-7" x="34.75" y="19.37" width="0.25" height="64.27"/><rect class="cls-7" x="35.01" y="19.37" width="0.25" height="64.27"/><rect class="cls-7" x="35.26" y="19.37" width="0.25" height="64.27"/><rect class="cls-7" x="35.51" y="19.37" width="0.25" height="64.27"/><rect class="cls-7" x="35.76" y="19.37" width="0.25" height="64.27"/><rect class="cls-7" x="36.01" y="19.37" width="0.25" height="64.27"/><rect class="cls-7" x="36.27" y="19.37" width="0.25" height="64.27"/><rect class="cls-7" x="36.52" y="19.37" width="0.25" height="64.27"/><rect class="cls-7" x="36.77" y="19.37" width="0.25" height="64.27"/><rect class="cls-8" x="37.02" y="19.37" width="0.25" height="64.27"/><rect class="cls-8" x="37.27" y="19.37" width="0.25" height="64.27"/><rect class="cls-8" x="37.53" y="19.37" width="0.25" height="64.27"/><rect class="cls-8" x="37.78" y="19.37" width="0.25" height="64.27"/><rect class="cls-9" x="38.03" y="19.37" width="0.25" height="64.27"/><rect class="cls-10" x="38.28" y="19.37" width="0.25" height="64.27"/><rect class="cls-11" x="38.53" y="19.37" width="0.25" height="64.27"/><rect class="cls-12" x="38.79" y="19.37" width="0.25" height="64.27"/><rect class="cls-13" x="39.04" y="19.37" width="0.25" height="64.27"/><rect class="cls-14" x="39.29" y="19.37" width="0.25" height="64.27"/><rect class="cls-15" x="39.54" y="19.37" width="0.25" height="64.27"/><rect class="cls-16" x="39.79" y="19.37" width="0.25" height="64.27"/><rect class="cls-17" x="40.05" y="19.37" width="0.25" height="64.27"/><rect class="cls-18" x="40.3" y="19.37" width="0.25" height="64.27"/><rect class="cls-19" x="40.55" y="19.37" width="0.25" height="64.27"/><rect class="cls-20" x="40.8" y="19.37" width="0.25" height="64.27"/><rect class="cls-21" x="41.05" y="19.37" width="0.25" height="64.27"/><rect class="cls-22" x="41.31" y="19.37" width="0.25" height="64.27"/><rect class="cls-23" x="41.56" y="19.37" width="0.25" height="64.27"/><rect class="cls-24" x="41.81" y="19.37" width="0.25" height="64.27"/><rect class="cls-25" x="42.06" y="19.37" width="0.25" height="64.27"/><rect class="cls-26" x="42.31" y="19.37" width="0.25" height="64.27"/><rect class="cls-27" x="42.57" y="19.37" width="0.25" height="64.27"/><rect class="cls-28" x="42.82" y="19.37" width="0.25" height="64.27"/><rect class="cls-29" x="43.07" y="19.37" width="0.25" height="64.27"/><rect class="cls-30" x="43.32" y="19.37" width="0.25" height="64.27"/><rect class="cls-31" x="43.57" y="19.37" width="0.25" height="64.27"/><rect class="cls-32" x="43.83" y="19.37" width="0.25" height="64.27"/><rect class="cls-33" x="44.08" y="19.37" width="0.25" height="64.27"/><rect class="cls-34" x="44.33" y="19.37" width="0.25" height="64.27"/><rect class="cls-35" x="44.58" y="19.37" width="0.25" height="64.27"/><rect class="cls-36" x="44.83" y="19.37" width="0.25" height="64.27"/><rect class="cls-37" x="45.09" y="19.37" width="0.25" height="64.27"/><rect class="cls-38" x="45.34" y="19.37" width="0.25" height="64.27"/><rect class="cls-39" x="45.59" y="19.37" width="0.25" height="64.27"/><rect class="cls-40" x="45.84" y="19.37" width="0.25" height="64.27"/><rect class="cls-41" x="46.1" y="19.37" width="0.25" height="64.27"/><rect class="cls-42" x="46.35" y="19.37" width="0.25" height="64.27"/><rect class="cls-43" x="46.6" y="19.37" width="0.25" height="64.27"/><rect class="cls-44" x="46.85" y="19.37" width="0.25" height="64.27"/><rect class="cls-45" x="47.1" y="19.37" width="0.25" height="64.27"/><rect class="cls-46" x="47.36" y="19.37" width="0.25" height="64.27"/><rect class="cls-47" x="47.61" y="19.37" width="0.25" height="64.27"/><rect class="cls-48" x="47.86" y="19.37" width="0.25" height="64.27"/><rect class="cls-49" x="48.11" y="19.37" width="0.25" height="64.27"/><rect class="cls-50" x="48.36" y="19.37" width="0.25" height="64.27"/><rect class="cls-51" x="48.62" y="19.37" width="0.25" height="64.27"/><rect class="cls-52" x="48.87" y="19.37" width="0.25" height="64.27"/><rect class="cls-53" x="49.12" y="19.37" width="0.25" height="64.27"/><rect class="cls-54" x="49.37" y="19.37" width="0.25" height="64.27"/><rect class="cls-55" x="49.62" y="19.37" width="0.25" height="64.27"/><rect class="cls-56" x="49.88" y="19.37" width="0.25" height="64.27"/><rect class="cls-57" x="50.13" y="19.37" width="0.25" height="64.27"/><rect class="cls-58" x="50.38" y="19.37" width="0.25" height="64.27"/><rect class="cls-59" x="50.63" y="19.37" width="0.25" height="64.27"/><rect class="cls-60" x="50.88" y="19.37" width="0.25" height="64.27"/><rect class="cls-61" x="51.14" y="19.37" width="0.25" height="64.27"/><rect class="cls-62" x="51.39" y="19.37" width="0.25" height="64.27"/><rect class="cls-63" x="51.64" y="19.37" width="0.25" height="64.27"/><rect class="cls-64" x="51.89" y="19.37" width="0.25" height="64.27"/><rect class="cls-65" x="52.14" y="19.37" width="0.25" height="64.27"/><rect class="cls-66" x="52.4" y="19.37" width="0.25" height="64.27"/><rect class="cls-67" x="52.65" y="19.37" width="0.25" height="64.27"/><rect class="cls-68" x="52.9" y="19.37" width="0.25" height="64.27"/><rect class="cls-69" x="53.15" y="19.37" width="0.25" height="64.27"/><rect class="cls-70" x="53.4" y="19.37" width="0.25" height="64.27"/><rect class="cls-71" x="53.66" y="19.37" width="0.25" height="64.27"/><rect class="cls-72" x="53.91" y="19.37" width="0.25" height="64.27"/><rect class="cls-73" x="54.16" y="19.37" width="0.25" height="64.27"/><rect class="cls-74" x="54.41" y="19.37" width="0.25" height="64.27"/><rect class="cls-75" x="54.66" y="19.37" width="0.25" height="64.27"/><rect class="cls-76" x="54.92" y="19.37" width="0.25" height="64.27"/><rect class="cls-77" x="55.17" y="19.37" width="0.25" height="64.27"/><rect class="cls-78" x="55.42" y="19.37" width="0.25" height="64.27"/><rect class="cls-79" x="55.67" y="19.37" width="0.25" height="64.27"/><rect class="cls-80" x="55.93" y="19.37" width="0.25" height="64.27"/><rect class="cls-81" x="56.18" y="19.37" width="0.25" height="64.27"/><rect class="cls-82" x="56.43" y="19.37" width="0.25" height="64.27"/><rect class="cls-83" x="56.68" y="19.37" width="0.25" height="64.27"/><rect class="cls-84" x="56.93" y="19.37" width="0.25" height="64.27"/><rect class="cls-85" x="57.19" y="19.37" width="0.25" height="64.27"/><rect class="cls-86" x="57.44" y="19.37" width="0.25" height="64.27"/><rect class="cls-87" x="57.69" y="19.37" width="0.25" height="64.27"/><rect class="cls-88" x="57.94" y="19.37" width="0.25" height="64.27"/><rect class="cls-89" x="58.19" y="19.37" width="0.25" height="64.27"/><rect class="cls-90" x="58.45" y="19.37" width="0.25" height="64.27"/><rect class="cls-91" x="58.7" y="19.37" width="0.25" height="64.27"/><rect class="cls-92" x="58.95" y="19.37" width="0.25" height="64.27"/><rect class="cls-93" x="59.2" y="19.37" width="0.25" height="64.27"/><rect class="cls-94" x="59.45" y="19.37" width="0.25" height="64.27"/><rect class="cls-95" x="59.71" y="19.37" width="0.25" height="64.27"/><rect class="cls-96" x="59.96" y="19.37" width="0.25" height="64.27"/><rect class="cls-97" x="60.21" y="19.37" width="0.25" height="64.27"/><rect class="cls-98" x="60.46" y="19.37" width="0.25" height="64.27"/><rect class="cls-99" x="60.72" y="19.37" width="0.25" height="64.27"/><rect class="cls-100" x="60.97" y="19.37" width="0.25" height="64.27"/><rect class="cls-101" x="61.22" y="19.37" width="0.25" height="64.27"/><rect class="cls-102" x="61.47" y="19.37" width="0.25" height="64.27"/><rect class="cls-103" x="61.72" y="19.37" width="0.25" height="64.27"/><rect class="cls-104" x="61.98" y="19.37" width="0.25" height="64.27"/><rect class="cls-105" x="62.23" y="19.37" width="0.25" height="64.27"/><rect class="cls-106" x="62.48" y="19.37" width="0.25" height="64.27"/><rect class="cls-107" x="62.73" y="19.37" width="0.25" height="64.27"/><rect class="cls-108" x="62.98" y="19.37" width="0.25" height="64.27"/><rect class="cls-109" x="63.24" y="19.37" width="0.25" height="64.27"/><rect class="cls-110" x="63.49" y="19.37" width="0.25" height="64.27"/><rect class="cls-111" x="63.74" y="19.37" width="0.25" height="64.27"/><rect class="cls-112" x="63.99" y="19.37" width="0.25" height="64.27"/><rect class="cls-113" x="64.24" y="19.37" width="0.25" height="64.27"/><rect class="cls-114" x="64.5" y="19.37" width="0.25" height="64.27"/><rect class="cls-115" x="64.75" y="19.37" width="0.25" height="64.27"/><rect class="cls-116" x="65" y="19.37" width="0.25" height="64.27"/><rect class="cls-117" x="65.25" y="19.37" width="0.25" height="64.27"/><rect class="cls-118" x="65.5" y="19.37" width="0.25" height="64.27"/><rect class="cls-119" x="65.76" y="19.37" width="0.25" height="64.27"/><rect class="cls-120" x="66.01" y="19.37" width="0.25" height="64.27"/><rect class="cls-121" x="66.26" y="19.37" width="0.25" height="64.27"/><rect class="cls-122" x="66.51" y="19.37" width="0.25" height="64.27"/><rect class="cls-123" x="66.76" y="19.37" width="0.25" height="64.27"/><rect class="cls-124" x="67.02" y="19.37" width="0.25" height="64.27"/><rect class="cls-125" x="67.27" y="19.37" width="0.25" height="64.27"/><rect class="cls-126" x="67.52" y="19.37" width="0.25" height="64.27"/><rect class="cls-127" x="67.77" y="19.37" width="0.25" height="64.27"/><rect class="cls-128" x="68.02" y="19.37" width="0.25" height="64.27"/><rect class="cls-129" x="68.28" y="19.37" width="0.25" height="64.27"/><rect class="cls-130" x="68.53" y="19.37" width="0.25" height="64.27"/><rect class="cls-131" x="68.78" y="19.37" width="0.25" height="64.27"/><rect class="cls-132" x="69.03" y="19.37" width="0.25" height="64.27"/><rect class="cls-133" x="69.29" y="19.37" width="0.25" height="64.27"/><rect class="cls-134" x="69.54" y="19.37" width="0.25" height="64.27"/><rect class="cls-135" x="69.79" y="19.37" width="0.25" height="64.27"/><rect class="cls-136" x="70.04" y="19.37" width="0.25" height="64.27"/><rect class="cls-137" x="70.29" y="19.37" width="0.25" height="64.27"/><rect class="cls-138" x="70.55" y="19.37" width="0.25" height="64.27"/><rect class="cls-139" x="70.8" y="19.37" width="0.25" height="64.27"/><rect class="cls-140" x="71.05" y="19.37" width="0.25" height="64.27"/><rect class="cls-141" x="71.3" y="19.37" width="0.25" height="64.27"/><rect class="cls-142" x="71.55" y="19.37" width="0.25" height="64.27"/><rect class="cls-143" x="71.8" y="19.37" width="0.25" height="64.27"/><rect class="cls-144" x="72.06" y="19.37" width="0.25" height="64.27"/><rect class="cls-145" x="72.31" y="19.37" width="0.25" height="64.27"/><rect class="cls-146" x="72.56" y="19.37" width="0.25" height="64.27"/><rect class="cls-147" x="72.81" y="19.37" width="0.25" height="64.27"/><rect class="cls-148" x="73.06" y="19.37" width="0.25" height="64.27"/><rect class="cls-149" x="73.32" y="19.37" width="0.25" height="64.27"/><rect class="cls-150" x="73.57" y="19.37" width="0.25" height="64.27"/><rect class="cls-151" x="73.82" y="19.37" width="0.25" height="64.27"/><rect class="cls-152" x="74.07" y="19.37" width="0.25" height="64.27"/><rect class="cls-153" x="74.32" y="19.37" width="0.25" height="64.27"/><rect class="cls-154" x="74.58" y="19.37" width="0.25" height="64.27"/><rect class="cls-155" x="74.83" y="19.37" width="0.25" height="64.27"/><rect class="cls-156" x="75.08" y="19.37" width="0.25" height="64.27"/><rect class="cls-157" x="75.33" y="19.37" width="0.25" height="64.27"/><rect class="cls-158" x="75.58" y="19.37" width="0.25" height="64.27"/><rect class="cls-159" x="75.84" y="19.37" width="0.25" height="64.27"/><rect class="cls-160" x="76.09" y="19.37" width="0.25" height="64.27"/><rect class="cls-161" x="76.34" y="19.37" width="0.25" height="64.27"/><rect class="cls-162" x="76.59" y="19.37" width="0.25" height="64.27"/><rect class="cls-163" x="76.85" y="19.37" width="0.25" height="64.27"/><rect class="cls-164" x="77.1" y="19.37" width="0.25" height="64.27"/><rect class="cls-165" x="77.35" y="19.37" width="0.25" height="64.27"/><rect class="cls-166" x="77.6" y="19.37" width="0.25" height="64.27"/><rect class="cls-167" x="77.85" y="19.37" width="0.25" height="64.27"/><rect class="cls-168" x="78.11" y="19.37" width="0.25" height="64.27"/><rect class="cls-169" x="78.36" y="19.37" width="0.25" height="64.27"/><rect class="cls-170" x="78.61" y="19.37" width="0.25" height="64.27"/><rect class="cls-171" x="78.86" y="19.37" width="0.25" height="64.27"/><rect class="cls-172" x="79.11" y="19.37" width="0.25" height="64.27"/><rect class="cls-173" x="79.37" y="19.37" width="0.25" height="64.27"/><rect class="cls-174" x="79.62" y="19.37" width="0.25" height="64.27"/><rect class="cls-175" x="79.87" y="19.37" width="0.25" height="64.27"/><rect class="cls-176" x="80.12" y="19.37" width="0.25" height="64.27"/><rect class="cls-177" x="80.37" y="19.37" width="0.25" height="64.27"/><rect class="cls-178" x="80.63" y="19.37" width="0.25" height="64.27"/><rect class="cls-179" x="80.88" y="19.37" width="0.25" height="64.27"/><rect class="cls-180" x="81.13" y="19.37" width="0.25" height="64.27"/><rect class="cls-181" x="81.38" y="19.37" width="0.25" height="64.27"/><rect class="cls-182" x="81.63" y="19.37" width="0.25" height="64.27"/><rect class="cls-183" x="81.89" y="19.37" width="0.25" height="64.27"/><rect class="cls-184" x="82.14" y="19.37" width="0.25" height="64.27"/><rect class="cls-185" x="82.39" y="19.37" width="0.25" height="64.27"/><rect class="cls-186" x="82.64" y="19.37" width="0.25" height="64.27"/><rect class="cls-187" x="82.9" y="19.37" width="0.25" height="64.27"/><rect class="cls-188" x="83.15" y="19.37" width="0.25" height="64.27"/><rect class="cls-189" x="83.4" y="19.37" width="0.25" height="64.27"/><rect class="cls-190" x="83.65" y="19.37" width="0.25" height="64.27"/><rect class="cls-191" x="83.9" y="19.37" width="0.25" height="64.27"/><rect class="cls-192" x="84.16" y="19.37" width="0.25" height="64.27"/><rect class="cls-193" x="84.41" y="19.37" width="0.25" height="64.27"/><rect class="cls-194" x="84.66" y="19.37" width="0.25" height="64.27"/><rect class="cls-195" x="84.91" y="19.37" width="0.25" height="64.27"/><rect class="cls-196" x="85.16" y="19.37" width="0.25" height="64.27"/><rect class="cls-197" x="85.42" y="19.37" width="0.25" height="64.27"/><rect class="cls-198" x="85.67" y="19.37" width="0.25" height="64.27"/><rect class="cls-199" x="85.92" y="19.37" width="0.25" height="64.27"/><rect class="cls-200" x="86.17" y="19.37" width="0.25" height="64.27"/><rect class="cls-201" x="86.42" y="19.37" width="0.25" height="64.27"/><rect class="cls-202" x="86.68" y="19.37" width="0.25" height="64.27"/><rect class="cls-203" x="86.93" y="19.37" width="0.25" height="64.27"/><rect class="cls-204" x="87.18" y="19.37" width="0.25" height="64.27"/><rect class="cls-205" x="87.43" y="19.37" width="0.25" height="64.27"/><rect class="cls-206" x="87.68" y="19.37" width="0.25" height="64.27"/><path class="cls-206" d="M87.94,83.64v0Z"/></g><path d="M55.8,84.91a33.41,33.41,0,1,1,33.41-33.4A33.44,33.44,0,0,1,55.8,84.91m0-64.27A30.87,30.87,0,1,0,86.67,51.51,30.91,30.91,0,0,0,55.8,20.64"/><path class="cls-206" d="M68.05,44.12s2.54-1.95,3.47-1.95a3.35,3.35,0,0,1,1.61.42l.43.51s1.18-1.27,1.6-1.35,1.27,0,1.53.42-.09,1.19-.09,1.19S75.42,43.1,75,44.88a28.54,28.54,0,0,1-1.18,3.64Z"/><path class="cls-207" d="M68.05,44.12s2.54-1.95,3.47-1.95a3.35,3.35,0,0,1,1.61.42l.43.51s1.18-1.27,1.6-1.35,1.27,0,1.53.42-.09,1.19-.09,1.19S75.42,43.1,75,44.88a28.54,28.54,0,0,1-1.18,3.64Z"/><path class="cls-208" d="M80.63,52.5a8,8,0,0,0,4.27-4.23,61.52,61.52,0,0,0,2.21-9.06c.17-1.44.77-7,3.67-9.57s6.73-5.59,6.73-5.59L88,24s-.68,2.54-1.53,2.54a17.4,17.4,0,0,1-5-1.61c-.68-.51-3.24,0-3.24,0l3.58,3.64s2.64,2.54,1.88,4.4-4.1,5.25-4.1,5.25a26.77,26.77,0,0,0-1.19,2.71c-.26.85-.94,3.13-.94,3.13s-.76-1-1.53-.84-2,2.71-2.22,3.72,1.28,3.13,1.71,3.3,5.28,2.29,5.28,2.29"/><path class="cls-209" d="M80.63,52.5a8,8,0,0,0,4.27-4.23,61.52,61.52,0,0,0,2.21-9.06c.17-1.44.77-7,3.67-9.57s6.73-5.59,6.73-5.59L88,24s-.68,2.54-1.53,2.54a17.4,17.4,0,0,1-5-1.61c-.68-.51-3.24,0-3.24,0l3.58,3.64s2.64,2.54,1.88,4.4-4.1,5.25-4.1,5.25a26.77,26.77,0,0,0-1.19,2.71c-.26.85-.94,3.13-.94,3.13s-.76-1-1.53-.84-2,2.71-2.22,3.72,1.28,3.13,1.71,3.3S80.63,52.5,80.63,52.5Z"/><path class="cls-210" d="M95.15,24.9s-5.93,2.28-7.88,4.82a77.74,77.74,0,0,0-5.93,10c-.33.93-1.6,4.74-1.86,5.33s-.34,3.64.68,4.32A8.3,8.3,0,0,1,82,51.23a9,9,0,0,0,3.13-4.74c.85-3.13,2.12-9.4,2.12-9.4s1-5.59,2.37-6.86,7.2-5.08,5.51-5.33"/><path class="cls-211" d="M15.4,18.39a.41.41,0,0,0-.41.34l-3,.11c-.16,0-1.91.16-1.27.57s.67,1.06.08,1.06-4.29.21-5,.25-1.31.16-1,.45,0,.54-.44.49-2.1-.49-2.5-.57-.71-.21-.91.49a10.79,10.79,0,0,0-.48,3.08,7.31,7.31,0,0,0,0,2.11C.12,27,.35,28,.65,28.59s1.59.57,2.7.7,1.43-.25,1.71-.62.12,0,1,.08a21.12,21.12,0,0,0,3.77-.37A3.69,3.69,0,0,0,12.09,27c.24-.37.67-.28,1.31-.28.44,0,.94-.05,1.2-.07l-.24,5.2a.4.4,0,0,0,.37.43.41.41,0,0,0,.42-.39l.63-13.1A.41.41,0,0,0,15.4,18.39Z"/><g class="cls-212"><path class="cls-206" d="M44,74.55s.49,5.53.46,5.85.07,2,.07,2S54.85,85.12,55.27,85a20.85,20.85,0,0,0,2.42-2.88c.24-.3,1.27-2.11,1.52-.59a3.46,3.46,0,0,0,.83,2s8.47-2,9.18-2.52a19.93,19.93,0,0,0,1.83-1.57l-.81-4.57-6.65-1.2-2.25-.2H59.77l-2.45,0-4.11.17-4.5.39Z"/><path class="cls-213" d="M44,74.55s.49,5.53.46,5.85.07,2,.07,2S54.85,85.12,55.27,85a20.85,20.85,0,0,0,2.42-2.88c.24-.3,1.27-2.11,1.52-.59a3.46,3.46,0,0,0,.83,2s8.47-2,9.18-2.52a19.93,19.93,0,0,0,1.83-1.57l-.81-4.57-6.65-1.2-2.25-.2H59.77l-2.45,0-4.11.17-4.5.39Z"/><path class="cls-214" d="M45.58,81.87l.12-4.73L45,76.51l2.49-1.3.69-.42,2.88-.27c.42,0,3.67-.44,3.67-.44L57,73.91l4.74,0,3.53.29,1.24.59a5.23,5.23,0,0,0,1.57,2.47c1.08.76,1.08.83,1.08.83a35.89,35.89,0,0,0-5.73.74,13.24,13.24,0,0,0-2.23,1.34L64,81.35l-3.52.2-.22.66-.59-.76-.32-.17-.51-.59-1.94,1.13,1.2-1.67L54,77.66a5.57,5.57,0,0,0,1.28,1.59c.71.51,1.22.85,1.22.85a19.28,19.28,0,0,1-2.64-1.51c-.49-.47-3.11-2.6-3.11-2.6a7.42,7.42,0,0,0,1.57,3,17.84,17.84,0,0,1,2,2.21,26.27,26.27,0,0,1-2.65-2.28c-.73-.83-.95-.88-.95-.88s1,3.06,1.2,3.55a4.82,4.82,0,0,1-.13,1.93Z"/><path class="cls-215" d="M57.74,73.91a4.64,4.64,0,0,1-.49,1.94c-.42.53-.61.8-1,1s-1.08.66-.46.76,1.68-.73,2.12-1.32a19.93,19.93,0,0,0,1.23-2.15Z"/><path class="cls-215" d="M62.19,74.21s1,2.42,2.08,2.81,1.72.37,2,.12-.1-.34-.37-.41a6.47,6.47,0,0,1-2.15-1.28,9.21,9.21,0,0,1-.49-1.2Z"/><path class="cls-216" d="M62.51,75.82s-.83,3.75-3.4,5.21"/><line class="cls-216" x1="60.31" y1="77.58" x2="59.01" y2="80.91"/></g><path class="cls-208" d="M29.35,49.43s-4.07,1.07-5,2A3.56,3.56,0,0,0,24.05,48c-1.12-1.82-3-6-3.32-6.54a5.7,5.7,0,0,1-1.23-2.35c-.05-.86-.37-3.59-.11-4a2.15,2.15,0,0,0,0-1.82,10.41,10.41,0,0,0-2.57-1.76,13.94,13.94,0,0,0-4.07-1,3.34,3.34,0,0,0-3.69,3.05s.21,6.16,1,7.07a3.72,3.72,0,0,0,2.35,1.45c.75.05,1.77-.27,1.88.53s1.44,8.41,2.19,11.41,2,6,4,6.15,6.81-.05,7.61-.53a9.42,9.42,0,0,1,2.19-.8s2.36.8,2.68-1.07-.43-7-1-7.88-2.63-.53-2.63-.53"/><path class="cls-209" d="M29.35,49.43s-4.07,1.07-5,2A3.56,3.56,0,0,0,24.05,48c-1.12-1.82-3-6-3.32-6.54a5.7,5.7,0,0,1-1.23-2.35c-.05-.86-.37-3.59-.11-4a2.15,2.15,0,0,0,0-1.82,10.41,10.41,0,0,0-2.57-1.76,13.94,13.94,0,0,0-4.07-1,3.34,3.34,0,0,0-3.69,3.05s.21,6.16,1,7.07a3.72,3.72,0,0,0,2.35,1.45c.75.05,1.77-.27,1.88.53s1.44,8.41,2.19,11.41,2,6,4,6.15,6.81-.05,7.61-.53a9.42,9.42,0,0,1,2.19-.8s2.36.8,2.68-1.07-.43-7-1-7.88S29.35,49.43,29.35,49.43Z"/><path class="cls-217" d="M88.88,62s2.37,1.81,3.5.23-1.47-2.6-1.47-2.6Z"/><path class="cls-218" d="M88.88,62s2.37,1.81,3.5.23-1.47-2.6-1.47-2.6Z"/><path class="cls-2" d="M89.9,61.05a9.81,9.81,0,0,0,2.82,1.58c.9.11,2.14-.22,2.14-1.13a3.55,3.55,0,0,0-1-1.92Z"/><path class="cls-218" d="M89.9,61.05a9.81,9.81,0,0,0,2.82,1.58c.9.11,2.14-.22,2.14-1.13a3.55,3.55,0,0,0-1-1.92Z"/><path class="cls-219" d="M43,39.16s1.48,1,.77,1.69-.72,1.58-1.33,1.17-1.33-1-1.48-.36-.46,2.05-.72,1.54-1.43-.62-1.58-.21-.46.46-.16,1.89S44.12,58,44.12,58s12-.46,15-.61S68.85,59,70,59s16,5.67,16,5.67,4.75-3.73,6.24-3.83,2.34-.51,2.5-1,2-2.76,4.24-2.15,1.59-.15.77-.41-4.4-.56-5.27-.66a66,66,0,0,1-9-2.5c-2.2-.92-7.26-2.92-9-4.45s-5.52-4-6.9-5.42-4.8-3.12-7.61-2.56-13.6-2.86-13.6-2.86L46,36.45s-2.05.36-2.46,1A4.17,4.17,0,0,0,43,39.16"/><path class="cls-207" d="M43,39.16s1.48,1,.77,1.69-.72,1.58-1.33,1.17-1.33-1-1.48-.36-.46,2.05-.72,1.54-1.43-.62-1.58-.21-.46.46-.16,1.89S44.12,58,44.12,58s12-.46,15-.61S68.85,59,70,59s16,5.67,16,5.67,4.75-3.73,6.24-3.83,2.34-.51,2.5-1,2-2.76,4.24-2.15,1.59-.15.77-.41-4.4-.56-5.27-.66a66,66,0,0,1-9-2.5c-2.2-.92-7.26-2.92-9-4.45s-5.52-4-6.9-5.42-4.8-3.12-7.61-2.56-13.6-2.86-13.6-2.86L46,36.45s-2.05.36-2.46,1A4.17,4.17,0,0,0,43,39.16Z"/><path class="cls-220" d="M32.11,77.57a5,5,0,0,1,3.67,4.27s-1.72,2-2.29,2.19a41.28,41.28,0,0,1-6.18.35,9.06,9.06,0,0,1-3.43-1.11c-.59-.54-1.94-2.32-1.24-2.78a30.18,30.18,0,0,1,5.21-2.35c.86-.13,4.26-.57,4.26-.57"/><path class="cls-207" d="M32.11,77.57a5,5,0,0,1,3.67,4.27s-1.72,2-2.29,2.19a41.28,41.28,0,0,1-6.18.35,9.06,9.06,0,0,1-3.43-1.11c-.59-.54-1.94-2.32-1.24-2.78a30.18,30.18,0,0,1,5.21-2.35C28.71,78,32.11,77.57,32.11,77.57Z"/><path class="cls-220" d="M78.3,82.76s-1.86-1-1.59-2.08S77.9,77,79.36,76.55s7.82.51,9.17,1.59,2.08,1.7,1.73,2.24A16.59,16.59,0,0,1,88,82.76c-.18,0-6.56.75-6.56.75Z"/><path class="cls-207" d="M78.3,82.76s-1.86-1-1.59-2.08S77.9,77,79.36,76.55s7.82.51,9.17,1.59,2.08,1.7,1.73,2.24A16.59,16.59,0,0,1,88,82.76c-.18,0-6.56.75-6.56.75Z"/><path class="cls-221" d="M44.84,37s-.21,2.95.86,3.94,8.41,10.64,8.41,10.64l4.06-1L61.11,46l-1.67-3.05-14.7-6.22Z"/><path class="cls-222" d="M44.84,37s-.21,2.95.86,3.94,8.41,10.64,8.41,10.64l4.06-1L61.11,46l-1.67-3.05-14.7-6.22Z"/><path class="cls-223" d="M46.81,57.25a20.94,20.94,0,0,1-.83-3.6c-.12-1.45,0-4.06.17-3.81s4.31,6.09,5.06,6.5a3.46,3.46,0,0,0,1.82.29l-2.86-5a2.37,2.37,0,0,1,.95.62c.5.5,3.07,2.78,4,3a3,3,0,0,1,1.62.74c.29.33,2.94.29,2.94.29a9.42,9.42,0,0,1-1.83-1.62,4.54,4.54,0,0,1,1.25-4c1.24-1-1.7.16-1.7.16L56,52.16l-1.86-1.95-2.57-3.07L47.19,44.2l-3.07-.41a15.06,15.06,0,0,1-1.91,1.36,13.73,13.73,0,0,1-1.61.54S43,49.3,43.33,51s1.58,6.42,1.58,6.42Z"/><line class="cls-218" x1="61.67" y1="53.88" x2="63.59" y2="56.31"/><line class="cls-218" x1="72.4" y1="54.62" x2="77.2" y2="58.34"/><path class="cls-218" d="M65.57,43.78a46.76,46.76,0,0,0,11,8.75,56.36,56.36,0,0,0,11.91,5.19c.39.11,5.08,2.71,5.08,2.71"/><path class="cls-224" d="M69.29,49.14s6.78,5.93,8.08,6.6,7.79,3.17,9.37,3.84,3.89.85,3.21.29a30.39,30.39,0,0,0-4.4-2c-.56-.22-5.87-2.2-6.6-2.71S76.52,53.54,75.5,53,72,50.89,72,50.89s-2.59-2-2.71-1.75"/><path class="cls-224" d="M84.2,54.84S90,57.61,91.31,58a6.37,6.37,0,0,0,3.38.12c.79-.23,1.41-.79,1-.85s-5.3-.79-5.58-.9-5.87-1.53-5.87-1.53"/><path class="cls-224" d="M72.62,57.38s-2.48-2.26-2.14-2.31,2.82,2.09,2.82,2.09l.79.56Z"/><path class="cls-206" d="M30.18,60.54s-1-1.27-.68-1.49,1.16-.62,1.47-.4,1.3-.53,1.38-1.92a13.39,13.39,0,0,0-.68-5c-.5-1.07-1.24-2.35-1.41-2.2s-.87.7-1.21.56a1.62,1.62,0,0,1-.93-1.35,3.3,3.3,0,0,1,2.65-2.26c1.69-.43,3.44-.37,3.75-.06a39.47,39.47,0,0,1,3,5.36c.2.74.85,6.24.85,6.24l-.42.56L32.66,60Z"/><path class="cls-207" d="M30.18,60.54s-1-1.27-.68-1.49,1.16-.62,1.47-.4,1.3-.53,1.38-1.92a13.39,13.39,0,0,0-.68-5c-.5-1.07-1.24-2.35-1.41-2.2s-.87.7-1.21.56a1.62,1.62,0,0,1-.93-1.35,3.3,3.3,0,0,1,2.65-2.26c1.69-.43,3.44-.37,3.75-.06a39.47,39.47,0,0,1,3,5.36c.2.74.85,6.24.85,6.24l-.42.56L32.66,60Z"/><polyline class="cls-206" points="34.5 55.58 34.52 58.28 33.9 59.24"/><polyline class="cls-207" points="34.5 55.58 34.52 58.28 33.9 59.24"/><line class="cls-206" x1="35.91" y1="57.02" x2="34.52" y2="58.28"/><line class="cls-207" x1="35.91" y1="57.02" x2="34.52" y2="58.28"/><path class="cls-225" d="M29.13,48.69a3.44,3.44,0,0,1,1.41,1.07"/><path class="cls-225" d="M35.29,51a8.17,8.17,0,0,0-1.9-3.5"/><line class="cls-218" x1="33.04" y1="45.4" x2="34.31" y2="47.15"/><path class="cls-210" d="M17.09,35.35c-1-.59-1.28,2.67-2.09,3.8s-1.33-1.23-1.44-1.55a16.92,16.92,0,0,1,.11-2.9c.05-.42,1.12-2.4,2.4-2.73a2.77,2.77,0,0,1,2.68.91,2.24,2.24,0,0,1,.59,1.66,8.72,8.72,0,0,0-.27,1.24A23.45,23.45,0,0,0,19.18,39a14.83,14.83,0,0,0,1.12,2.68c.33.64,2.9,5.35,3.38,6.42a7.23,7.23,0,0,1,.53,3c0,.75-.1.86-.1.86a8,8,0,0,1,1.5-.7,7.67,7.67,0,0,1,1.76-.32A7.24,7.24,0,0,1,29,52.27a6.41,6.41,0,0,1,0,3.48,7.58,7.58,0,0,1-2.52,2.35,9.79,9.79,0,0,1-3.42.75c-.17,0-.17-.59.1-1s-.53,0-.53,0-2.23.66-3.65-2.13-2.87-9.22-3.09-10.55-.34-4.2.17-3.52,1.08.39,1.08.39-.17-1.46-.3-2-.26-1.67-.26-1.67.85-2.81.53-3"/><path class="cls-226" d="M9.65,38.93a3.23,3.23,0,0,0,4.39.33"/><path class="cls-226" d="M9.27,36.79s2.63,1.77,4.24.22"/><path class="cls-226" d="M9.27,33.47s2.47,2.2,4.45.7c0,0,1.18-1.5.27-1.93a12.08,12.08,0,0,1-1.82-1.12"/><path class="cls-2" d="M36,76.87s2.17,2.24,3.73,1.76a29.86,29.86,0,0,0,3.53-1.18c.25-.18.43-.6.08-1.16s-.73-1-.73-1Z"/><path class="cls-218" d="M36,76.87s2.17,2.24,3.73,1.76a29.86,29.86,0,0,0,3.53-1.18c.25-.18.43-.6.08-1.16s-.73-1-.73-1Z"/><path class="cls-210" d="M12.1,31.74s-2,1-1.68,1.79,1,.95,1.77.81,1.63-.59,1.56-1.16.07-1.3-1.65-1.44"/><path class="cls-210" d="M11,35.28S10,36,10.37,37s2.13.37,2.29.3a1.22,1.22,0,0,0,.55-.85c.07-.44.09-1.76-.1-1.69s-1.53.73-2.08.56"/><path class="cls-210" d="M11.22,38.09s-.85.26-.63.83a1.58,1.58,0,0,0,1.51.94c.49-.12,1.41-.38,1.48-.61s-.09-.38-.16-.78-.19-.78-.31-.78-.78.47-1,.47-.88-.07-.88-.07"/><path class="cls-210" d="M13.13,40.28a2.64,2.64,0,0,1-1,.26c-.29,0-.73.22-.4.55a1.35,1.35,0,0,0,1.46.21c.31-.26.78-1-.1-1"/><path class="cls-227" d="M14.22,40.75h0a.36.36,0,0,1-.34-.37l0-.72a.37.37,0,0,1,.38-.33.36.36,0,0,1,.34.37l0,.72a.36.36,0,0,1-.38.33"/><path class="cls-218" d="M14.22,40.75h0a.36.36,0,0,1-.34-.37l0-.72a.37.37,0,0,1,.38-.33.36.36,0,0,1,.34.37l0,.72A.36.36,0,0,1,14.22,40.75Z"/><line class="cls-227" x1="14.07" y1="42.03" x2="14.15" y2="40.8"/><line class="cls-228" x1="14.07" y1="42.03" x2="14.15" y2="40.8"/><path d="M102.23,13.43a1.4,1.4,0,0,0,1.64-1s1.4.22,1.48-.79-.15-2-.48-2-.67.56-.5.85.13.91-.07.72-.37-1-1.13-1-1.44.84-1.27,1.1.68,1.09.38,1-1.43-.24-1.47.06a3.74,3.74,0,0,0,1,1.45,4.18,4.18,0,0,0,.46-.35"/><path class="cls-227" d="M78.81,20.16s-2.76,1.27-2.38,1.35.77.13.68.38-.38.76.13.81,1.23.21,1.31-.09.42-1.22.42-1.22Z"/><path class="cls-228" d="M78.81,20.16s-2.76,1.27-2.38,1.35.77.13.68.38-.38.76.13.81,1.23.21,1.31-.09.42-1.22.42-1.22Z"/><path class="cls-227" d="M104.46,20.88a.78.78,0,0,0-.42-1,10.9,10.9,0,0,1-1.11-.63,1.29,1.29,0,0,0,1-1.53,8.33,8.33,0,0,0-1.06-3.26c-.29-.38-2-4.44-5.5-5.8s-7.07-2.87-12.87-.33A11.79,11.79,0,0,0,80.07,12s-2.37-.43-1.94,1.94l.17.85s.84.72-.34,1.91c0,0-1.36,2.58.59,3.89,0,0,4.49,1.06,5.46.34s1.31-.43,1.57-.17.08,1.14.89,1.23,18-1.1,18-1.1"/><path class="cls-207" d="M104.46,20.88a.78.78,0,0,0-.42-1,10.9,10.9,0,0,1-1.11-.63,1.29,1.29,0,0,0,1-1.53,8.33,8.33,0,0,0-1.06-3.26c-.29-.38-2-4.44-5.5-5.8s-7.07-2.87-12.87-.33A11.79,11.79,0,0,0,80.07,12s-2.37-.43-1.94,1.94l.17.85s.84.72-.34,1.91c0,0-1.36,2.58.59,3.89,0,0,4.49,1.06,5.46.34s1.31-.43,1.57-.17.08,1.14.89,1.23S104.46,20.88,104.46,20.88Z"/><path class="cls-218" d="M82,16.37s.78-1.48,1.88-.35"/><path class="cls-218" d="M79.93,16a.78.78,0,0,0-1.18-.35"/><path class="cls-229" d="M77.05,17.3s-.7.27,0,.74,1.25,1.27,2,.87,1.86-1,1.37-1.42a2.35,2.35,0,0,0-3.32-.19"/><path class="cls-218" d="M77.05,17.3s-.7.27,0,.74,1.25,1.27,2,.87,1.86-1,1.37-1.42A2.35,2.35,0,0,0,77.05,17.3Z"/><path d="M79.38,17.81a.38.38,0,0,1-.76,0,.38.38,0,0,1,.76,0"/><path d="M78.23,17.79a.38.38,0,1,1-.38-.38.38.38,0,0,1,.38.38"/><path class="cls-227" d="M79.27,13s-.63-.76-.8-.42a1.09,1.09,0,0,0-.13,1c.17.34.38,1.53.13,1.57s-1.53-1.1-1.44-1.82a4.29,4.29,0,0,1,1.61-2.24,3,3,0,0,1,1.65,1.23s-1,.46-1,.67"/><path class="cls-218" d="M79.27,13s-.63-.76-.8-.42a1.09,1.09,0,0,0-.13,1c.17.34.38,1.53.13,1.57s-1.53-1.1-1.44-1.82a4.29,4.29,0,0,1,1.61-2.24,3,3,0,0,1,1.65,1.23S79.31,12.79,79.27,13Z"/><path class="cls-227" d="M87.1,13.38s.89-.46.21-.89-1.94-.21-1.82,1.4,1.23,3.52,1.87,3.64,1.65.13,1.48-.89-.72-.72-.72-.72,2-.67,1.61-2.28a1.65,1.65,0,0,0-2.63-.26"/><path class="cls-218" d="M87.1,13.38s.89-.46.21-.89-1.94-.21-1.82,1.4,1.23,3.52,1.87,3.64,1.65.13,1.48-.89-.72-.72-.72-.72,2-.67,1.61-2.28A1.65,1.65,0,0,0,87.1,13.38Z"/><path class="cls-218" d="M91.21,17.28s.21-2.33-1.65-2.67"/><path class="cls-227" d="M85.87,12.71s-1.73-2-4.57.55"/><path class="cls-218" d="M85.87,12.71s-1.73-2-4.57.55"/><path class="cls-227" d="M79.82,12.49s1.44-.8,2.24.17"/><path class="cls-218" d="M79.82,12.49s1.44-.8,2.24.17"/><path class="cls-227" d="M82.45,19.56s-1.4,3.09-4.24.81c0,0-.8.29,0,1.31s2.07.85,2.71.85,2.67.12,3.22-.38,1.22-1.36,1.77-1.4a3.38,3.38,0,0,0,1.7-.72c.38-.34.51-.59.93-.68s1.23.47,1.65.47.8-.38.38-.55a.58.58,0,0,0-.68.21s-1.31.08-.76-.51,1.06-1.61,3.13-.3"/><path class="cls-218" d="M82.45,19.56s-1.4,3.09-4.24.81c0,0-.8.29,0,1.31s2.07.85,2.71.85,2.67.12,3.22-.38,1.22-1.36,1.77-1.4a3.38,3.38,0,0,0,1.7-.72c.38-.34.51-.59.93-.68s1.23.47,1.65.47.8-.38.38-.55a.58.58,0,0,0-.68.21s-1.31.08-.76-.51,1.06-1.61,3.13-.3"/><path class="cls-227" d="M101.33,20s1.94.3,2.45-2.16c0,0,.38-2-1.4-2.28"/><path class="cls-218" d="M101.33,20s1.94.3,2.45-2.16c0,0,.38-2-1.4-2.28"/><path class="cls-218" d="M107.34,20.75,70,23.2s.68,2.63,2.2,2.63,30.74-1.95,30.74-1.95A4.54,4.54,0,0,0,107.34,20.75Z"/><path class="cls-230" d="M105.39,22.36l-32,1.78-1.27-.6-.34-.33H70s.76,2.62,2.2,2.62,28.87-2.12,28.87-2.12,4.15-.25,4.32-1.35"/><path class="cls-218" d="M105.39,22.36l-32,1.78-1.27-.6-.34-.33H70s.76,2.62,2.2,2.62,28.87-2.12,28.87-2.12S105.22,23.46,105.39,22.36Z"/><path class="cls-227" d="M77.88,19.28A2.53,2.53,0,0,0,79.55,21c1.47.6,2.68-1.32,2.68-1.32a9.31,9.31,0,0,0-1.11-.49l-3.24.11"/><path d="M75.77,22.79s-1.39.14-.51-.53,1-.8,1.23-.73.69.17.62.36-.24.48-.16.61a.78.78,0,0,1,.1.26Z"/><path d="M84.35,22.25s-.19-.07.26-.53.7-.9.81-.82.23.47.5.84.19.47,0,.47l-1.57,0"/><path class="cls-231" d="M33.51,24.31s-6.58,2.36-5.41-.6S33.85,18,34,19.56a21.68,21.68,0,0,1-.51,4.75"/><path class="cls-232" d="M33.51,24.31s-6.58,2.36-5.41-.6S33.85,18,34,19.56A21.68,21.68,0,0,1,33.51,24.31Z"/><path class="cls-221" d="M37,32.31l0,.19c-.15.69-.53,3,.94,3.76,1.74.83,2.86.83,3.31,1.77s1.9,2.12,2.63,1.56a5.17,5.17,0,0,0,1.24-1.72l.83.33s1.29,5.94,10.59,6.39c0,0,5.16.22,6.11-1.61a19.42,19.42,0,0,0,1.29-4.84c.17-.49.73-4,.22-5.5s-2-5.49-1.79-7.11,1.18-5.33-.11-7.83-2.47-4.33-4.54-4.5-9.52,2-9.52,2-4,2.61-4.43,2.67-3,.72-3,.72l-2.24,7.28Z"/><path class="cls-233" d="M37,32.31l0,.19c-.15.69-.53,3,.94,3.76,1.74.83,2.86.83,3.31,1.77s1.9,2.12,2.63,1.56a5.17,5.17,0,0,0,1.24-1.72l.83.33s1.29,5.94,10.59,6.39c0,0,5.16.22,6.11-1.61a19.42,19.42,0,0,0,1.29-4.84c.17-.49.73-4,.22-5.5s-2-5.49-1.79-7.11,1.18-5.33-.11-7.83-2.47-4.33-4.54-4.5-9.52,2-9.52,2-4,2.61-4.43,2.67-3,.72-3,.72l-2.24,7.28Z"/><path class="cls-234" d="M51,15.52S46.79,18,46.19,20.3s.33,5.57,1.39,5.44a3.41,3.41,0,0,1,3.17-.66,5.8,5.8,0,0,1,2.77,2.45c.33.6.59,1.26.86,1.4s1,1.39.13,1.39a23.76,23.76,0,0,0-4,1.06c-.46.13-2.63,1-2.24,2.26s2.18,3,3.89,2.12,3-1.92,3-2.92-.06-1.66.13-1.33.27,1.2,1.19,1.2,1.19-.07,1,.33a4.3,4.3,0,0,0-.82,1.52c-.06.57.39.68,1.42.37a14.46,14.46,0,0,0,2.92-1.27c.08-.14.36-1.3-.25-1.35a2.93,2.93,0,0,1-2.08-1.07c-.5-.73-1.87-2.93-1.85-4.34a3.63,3.63,0,0,1,1.15-2.42,2.32,2.32,0,0,1,1.43-1c.48,0,1.48-.14,1.37.37s0,.85-.93.91-2.34,1.68-2.4,2A10.22,10.22,0,0,0,58,29.91c.39.84.84,1.68,1.45,1.79s2.12,1.18,1.84,1.46S60,34.4,60.55,34.79s.67.85-.28,1a7.39,7.39,0,0,0-2.79.9c-.72.45-2.57.84-2.17,1.57s2.79,1.57,4.18,1.12,1-.34.89.28.28,1.13-1.22,1.24a7.38,7.38,0,0,1-3.46-1.07s0,.84,1.56,1.8a23.56,23.56,0,0,1,2.51,1.91c.34.17,2,.43,2.45-.52a33,33,0,0,0,1.07-3.19A18.23,18.23,0,0,0,64,36.2a42.36,42.36,0,0,0-.67-5.11c-.34-1.63-1.4-3.82-1.17-6s.66-4.72.44-5.84-1.51-4.15-2.9-4.77-5-.53-8.65,1"/><path d="M47,27.05s1.9-2.36,2.48-2a2.38,2.38,0,0,0,1.36.38c-.05-.09-1.44-1.38-1.91-1S47,26.08,47,27.05"/><path d="M58.16,24.09S59.07,23,60,23.33s2.49.78,1.67.23-2.27-1.29-2.58-1-1.18,1.35-.94,1.51"/><path class="cls-206" d="M53.79,29.17s-2.54-3.68-5.85,1.19c0,0,1.27,2.58,5.55-.64"/><path class="cls-218" d="M53.79,29.17s-2.54-3.68-5.85,1.19c0,0,1.27,2.58,5.55-.64"/><path class="cls-235" d="M48.91,31.07s1.23.27,1.67-.72-.16-2.13-.95-1.8a14,14,0,0,0-1.58,1.79,4.74,4.74,0,0,0,.86.73"/><path class="cls-228" d="M48.91,31.07s1.23.27,1.67-.72-.16-2.13-.95-1.8a14,14,0,0,0-1.58,1.79A4.74,4.74,0,0,0,48.91,31.07Z"/><path d="M49.9,29.74a.52.52,0,1,1-.52-.52.52.52,0,0,1,.52.52"/><path class="cls-206" d="M50.14,28.91a.33.33,0,0,1-.66,0,.33.33,0,0,1,.66,0"/><path class="cls-236" d="M57.19,26.46s-.24,4.1,2.47,5.66a6.76,6.76,0,0,0,.74.16c.22,0,1.59.8.85,1.43s-1,.76-.78,1.15"/><path class="cls-236" d="M56.84,33.71s-1.06,1.45.28,1.89"/><path class="cls-236" d="M58.65,42a1.85,1.85,0,0,0,1.91-.5"/><path class="cls-226" d="M43.5,36.37s-1.1.85-1.4.47-.63-1-.34-1.23.38-.51-.17-1-2.58-1.78-3.34-.22"/><path class="cls-206" d="M57.79,27.27s1.89-4,4.25-.32c0,0-2.07,2.57-4.25.32"/><path class="cls-218" d="M57.79,27.27s1.89-4,4.25-.32C62,27,60,29.52,57.79,27.27Z"/><path class="cls-235" d="M59.47,28.12a1.42,1.42,0,0,0,.88-1.23c0-.87-.75-1.36-1.2-1.2,0,0-1,1-1.1,1.2a3.37,3.37,0,0,0-.15.37s.84.9,1.57.86"/><path class="cls-228" d="M59.47,28.12a1.42,1.42,0,0,0,.88-1.23c0-.87-.75-1.36-1.2-1.2,0,0-1,1-1.1,1.2a3.37,3.37,0,0,0-.15.37S58.74,28.16,59.47,28.12Z"/><path class="cls-237" d="M33.81,20.67s-1.32,5.47-.75,7.42,1,2.94,1.27,2.65.28-.23.69.58,1.44,1.78,1.9,1.72,2.13-2.65,4.95.92c0,0,.8.06,1-1.9a33.83,33.83,0,0,0-.18-6.62,18.11,18.11,0,0,1-.57-3.51,3.41,3.41,0,0,0-.86-2.36,3.83,3.83,0,0,0,3.33-.4c1.44-1.09,8.52-5.87,13.82-4.78,0,0,2-.05,6.33,3.17,0,0,.86-2.88-3.63-5.7A9.29,9.29,0,0,1,64.43,13s.46-1.21-1.44-2.3a16.41,16.41,0,0,0-7.42-2.25C52.8,8.41,46,8.41,42.85,10.13s-9.44,7.31-9.44,7.31Z"/><path class="cls-207" d="M33.81,20.67s-1.32,5.47-.75,7.42,1,2.94,1.27,2.65.28-.23.69.58,1.44,1.78,1.9,1.72,2.13-2.65,4.95.92c0,0,.8.06,1-1.9a33.83,33.83,0,0,0-.18-6.62,18.11,18.11,0,0,1-.57-3.51,3.41,3.41,0,0,0-.86-2.36,3.83,3.83,0,0,0,3.33-.4c1.44-1.09,8.52-5.87,13.82-4.78,0,0,2-.05,6.33,3.17,0,0,.86-2.88-3.63-5.7A9.29,9.29,0,0,1,64.43,13s.46-1.21-1.44-2.3a16.41,16.41,0,0,0-7.42-2.25C52.8,8.41,46,8.41,42.85,10.13s-9.44,7.31-9.44,7.31Z"/><path class="cls-238" d="M57.46,6.43S55,3.79,54.5,3.79,49.26,5.2,49.26,5.2s-9.21,3.6-10,4.06-6.57,4.28-6.57,4.28l-.77,1.51s0,3.1.45,3.28S42.46,12.63,44.52,12a49.82,49.82,0,0,0,7-2.78,54.35,54.35,0,0,1,5.84-2.14Z"/><path class="cls-239" d="M57.46,6.43S55,3.79,54.5,3.79,49.26,5.2,49.26,5.2s-9.21,3.6-10,4.06-6.57,4.28-6.57,4.28l-.77,1.51s0,3.1.45,3.28S42.46,12.63,44.52,12a49.82,49.82,0,0,0,7-2.78,54.35,54.35,0,0,1,5.84-2.14Z"/><path class="cls-240" d="M32.48,18.05s-4.79,4.52-4.38,5.66c0,0,3.29-1.6,3.79-1.87s13.68-6.16,15-6.61,4.61-2.56,6.25-3.15,4.33-1.87,5.19-2.28,4.29-2.14,5.38-1.41c0,0,1.28.09,1-.41s-1.59-2.1-6-1.6A26.36,26.36,0,0,0,49.48,9c-.77.54-5.6,2.37-6.38,2.78s-4,2-4.78,2.32-4.24,3-4.24,3Z"/><path class="cls-207" d="M32.48,18.05s-4.79,4.52-4.38,5.66c0,0,3.29-1.6,3.79-1.87s13.68-6.16,15-6.61,4.61-2.56,6.25-3.15,4.33-1.87,5.19-2.28,4.29-2.14,5.38-1.41c0,0,1.28.09,1-.41s-1.59-2.1-6-1.6A26.36,26.36,0,0,0,49.48,9c-.77.54-5.6,2.37-6.38,2.78s-4,2-4.78,2.32-4.24,3-4.24,3Z"/><path class="cls-240" d="M32,15.55S31.3,10.76,33,8.21,40.5,1.28,46.29.41c0,0,3.2-1.41,8.21,3.37,0,0-8.71,3.38-9.71,3.84a56.35,56.35,0,0,0-5.84,3C38.5,11,33.76,14,33.76,14Z"/><path class="cls-241" d="M32,15.55S31.3,10.76,33,8.21,40.5,1.28,46.29.41c0,0,3.2-1.41,8.21,3.37,0,0-8.71,3.38-9.71,3.84a56.35,56.35,0,0,0-5.84,3C38.5,11,33.76,14,33.76,14Z"/><path class="cls-242" d="M32.58,14s.81.05,1.63-1.48S38.4,5.2,39.37,4.29,41,2.63,41,2.63s-4,1.57-5.49,3.09-3,3.38-3.08,4.28-1,4.33.15,4"/><path class="cls-243" d="M40.76,13.18S38.59,14.87,39,15.54s1.25.14,3.37-.53,9.29-3.18,9.29-3.18-8.28,4.29-9.15,4.67S36,19.1,35.22,19.34s-5.68,2.51-5.68,2.51a14.52,14.52,0,0,1,2.89-3.33c1.4-1,6-4.57,8.33-5.34"/><g class="cls-244"><g class="cls-245"><path class="cls-206" d="M48.56.57s-3.23.67-1.11,1.35a9.64,9.64,0,0,1,4.19,2.64c1.06,1,3.9,3,3.08,1.21s-2-4.48-6.16-5.2"/></g></g><path class="cls-246" d="M35.6,21.26a4,4,0,0,0-1.41,3.95c.37,2.81.37,3.22.37,3.22l1.63-3.36s.15,3.69.7,4.51,2.07,1.29,1.77.63a14.8,14.8,0,0,1-.44-4.41,16,16,0,0,1,.44-1.59s1,4.85,1.3,5.7.85,1,.92,0,1-7.58-.55-9.8l-.19,2.81a7.37,7.37,0,0,1-.62-1.44c-.11-.52-.56-.45-.93.07s-1.4,2.15-1.4,2.15a1.6,1.6,0,0,1-.3-.74c0-.34-.11-.93-.3-.63a13.52,13.52,0,0,1-1.22,1.25s-.7-.85.23-2.32"/><path class="cls-247" d="M54,37.51s1.78,2.2,3.89,2,3-.17,3.77-1.19c0,0-1.44,1.23-1.31,1.82s-.89,1.06-1.91.89-2.92-.25-4.44-3.56"/><path class="cls-248" d="M54,37.51s1.78,2.2,3.89,2,3-.17,3.77-1.19c0,0-1.44,1.23-1.31,1.82s-.89,1.06-1.91.89S55.52,40.82,54,37.51Z"/><path class="cls-249" d="M59.92,40.62a5.13,5.13,0,0,0-2-1,6.59,6.59,0,0,1-1.69-.24c-.21-.07-.64.58,1.14,1.31,0,0,1.86.55,2.58,0"/><path d="M62.69,34.8c0-.13,0-.07,0-.07-.91,1.06-3.13.46-3.48.65s-.28.26-.28.26a1.2,1.2,0,0,0-1.13.25,2.24,2.24,0,0,0-.57.42l0,0a3.87,3.87,0,0,1-1.4-.07,1.94,1.94,0,0,0,1.64.87s0,0,0,0a.28.28,0,0,0,.11-.05h.1a.73.73,0,0,1,.1.33c0,.08.37-.09.39-.31s.26-.06.4-.06.48-.31.59-.42.34.2.34.2,0-.34.06-.6.22-.05.42.06.17.59.17.59a1.82,1.82,0,0,0,.25-.59c0-.25.28.11.43.34s.62.17.62.17L61,36.22h0a.9.9,0,0,0,.43,0,2.29,2.29,0,0,0,.69,0c.51-.05.59-1.55.59-1.55l-.05,0"/><g class="cls-250"><g class="cls-251"><path class="cls-229" d="M59.48,27.28s-.45.15-.55-.08-.31-.46-.41-.33-.15.77.24.87a1.32,1.32,0,0,0,1-.21c0-.1,0-.39-.3-.25"/></g></g><g class="cls-250"><g class="cls-252"><path class="cls-229" d="M48.82,30s.42.68.73.39.68-.71.73-.53-.31,1-.81,1-1-.25-1-.57,0-.41.37-.27"/></g></g><path d="M60,26.62a.71.71,0,1,1-.71-.71.71.71,0,0,1,.71.71"/><path class="cls-206" d="M59.84,26.35a.41.41,0,1,1-.82,0,.41.41,0,1,1,.82,0"/><path class="cls-206" d="M44.37,41.29s-.95,4.42-.89,4.75.77.15,1,0,2.37-.51,3-.09c0,0-.32,1.54.09,1.75s6.5,4.13,8.4,6.85c0,0,4-5.4,5.28-5.63,0,0,.3-.27-.15-.86a8,8,0,0,0-.59-.75s1.93-.77,3-.2.62-.36.53-.6a18.81,18.81,0,0,0-2.25-2.61,16.06,16.06,0,0,1-2.67.65s-3.36,1.31-3.21,6c0,0-4.72-5-6-6.11s-3.8-3.24-4.13-3.71-.77-1.73-1-1-.41,1.54-.41,1.54"/><path class="cls-207" d="M44.37,41.29s-.95,4.42-.89,4.75.77.15,1,0,2.37-.51,3-.09c0,0-.32,1.54.09,1.75s6.5,4.13,8.4,6.85c0,0,4-5.4,5.28-5.63,0,0,.3-.27-.15-.86a8,8,0,0,0-.59-.75s1.93-.77,3-.2.62-.36.53-.6a18.81,18.81,0,0,0-2.25-2.61,16.06,16.06,0,0,1-2.67.65s-3.36,1.31-3.21,6c0,0-4.72-5-6-6.11s-3.8-3.24-4.13-3.71-.77-1.73-1-1S44.37,41.29,44.37,41.29Z"/><path class="cls-218" d="M50.83,47.51a15.46,15.46,0,0,0-3.55-1.69"/><path class="cls-218" d="M57.88,49.23a32.3,32.3,0,0,1,2.87-2"/><path class="cls-217" d="M43.22,75.26s-.28,1.79,1,1.51,3.6-1.64,3.53-1.89-4.57.38-4.57.38"/><path class="cls-218" d="M43.22,75.26s-.28,1.79,1,1.51,3.6-1.64,3.53-1.89S43.22,75.26,43.22,75.26Z"/><path class="cls-2" d="M37.83,58s-11.44,2.8-13.72,4.41l-.17,12.53s-11.51-.77-14.56,0c0,0,6.94,2.88,5.92,9.9,0,0,3.39-3,6.52-1.61,0,0,5.8,3.48,11.73,1.23,0,0,2.2-1.52,2.29-2.2s-.47-.72-.6-.34a3.71,3.71,0,0,1-3.09,1.7,36.42,36.42,0,0,1-6.52-.39c-.93-.21-3.81-1.39-1-2.58A105,105,0,0,1,37.23,76.8c2.92-.64,13.21-2.63,21.21-2.33a155.3,155.3,0,0,1,22.57,3c2.66.67,8.89,2.24,7.74,3.3a10,10,0,0,1-5.84,2,29.78,29.78,0,0,1-4.78-.51,11.43,11.43,0,0,0-1.1-.51A5.75,5.75,0,0,0,80,83.87a23.07,23.07,0,0,0,8-.47c1.69-.59,4.14-2.49,6.69-1.22a8.81,8.81,0,0,1,2.45,1.48s-1-7,5.17-10.33a38.74,38.74,0,0,0-5.85,0c-2.28.26-5.46.51-6.35.64a16.22,16.22,0,0,1-2.24.09l-.21-12.75S77,56.82,60.77,55.8a93.88,93.88,0,0,0-12.33.48l-3.51.21s-1.29-7.8-4.73-11.31c0,0-2.11-2.41-2.76-2.28A13.15,13.15,0,0,0,35.16,44s-.47.44-.68.4-1.26-1.12-2.28-.68A3.25,3.25,0,0,0,30.46,46c0,.51.14,1.26,1,1.12a2.75,2.75,0,0,1,1.81.27c.23.17,1-.07.92-.34s.4.34.81,1.09a39,39,0,0,1,2.25,5.55A19,19,0,0,1,37.83,58"/><path class="cls-253" d="M37.83,58s-11.44,2.8-13.72,4.41l-.17,12.53s-11.51-.77-14.56,0c0,0,6.94,2.88,5.92,9.9,0,0,3.39-3,6.52-1.61,0,0,5.8,3.48,11.73,1.23,0,0,2.2-1.52,2.29-2.2s-.47-.72-.6-.34a3.71,3.71,0,0,1-3.09,1.7,36.42,36.42,0,0,1-6.52-.39c-.93-.21-3.81-1.39-1-2.58A105,105,0,0,1,37.23,76.8c2.92-.64,13.21-2.63,21.21-2.33a155.3,155.3,0,0,1,22.57,3c2.66.67,8.89,2.24,7.74,3.3a10,10,0,0,1-5.84,2,29.78,29.78,0,0,1-4.78-.51,11.43,11.43,0,0,0-1.1-.51A5.75,5.75,0,0,0,80,83.87a23.07,23.07,0,0,0,8-.47c1.69-.59,4.14-2.49,6.69-1.22a8.81,8.81,0,0,1,2.45,1.48s-1-7,5.17-10.33a38.74,38.74,0,0,0-5.85,0c-2.28.26-5.46.51-6.35.64a16.22,16.22,0,0,1-2.24.09l-.21-12.75S77,56.82,60.77,55.8a93.88,93.88,0,0,0-12.33.48l-3.51.21s-1.29-7.8-4.73-11.31c0,0-2.11-2.41-2.76-2.28A13.15,13.15,0,0,0,35.16,44s-.47.44-.68.4-1.26-1.12-2.28-.68A3.25,3.25,0,0,0,30.46,46c0,.51.14,1.26,1,1.12a2.75,2.75,0,0,1,1.81.27c.23.17,1-.07.92-.34s.4.34.81,1.09a39,39,0,0,1,2.25,5.55A19,19,0,0,1,37.83,58Z"/><line class="cls-218" x1="38.28" y1="47.31" x2="34.48" y2="44.43"/><path class="cls-206" d="M28.9,63.25s1.26,1.79.49,2.3a.7.7,0,0,1-.86-.34A4.94,4.94,0,0,1,28.25,64s-.08-.65-.54-.63-1.05.57-.85,1S28,67.2,28.25,67.72s.74,1,1.14,1a.48.48,0,0,0,.42-.74c-.19-.37-.88-1.25-.71-1.51s.66-.51.91-.08,1.06,2,1.48,2,1-.2.8-.43A21.48,21.48,0,0,1,31,65.53a12.64,12.64,0,0,1-.6-2c0-.32-.31-1.14-1-1.11s-.49.85-.49.85"/><path class="cls-206" d="M34.85,63.88s-.43-1-1.17-1a2.2,2.2,0,0,0-2,1.12,2.48,2.48,0,0,0,.21,2.64,2,2,0,0,0,2.93-2.73m-1,2.17c-.15.23-.88,0-1.06-.17a1.48,1.48,0,0,1,.08-1.61c.47-.51,1.08,0,1.08,0a1.48,1.48,0,0,1-.1,1.76"/><path class="cls-206" d="M39.38,65.43c-.18-.2-1.33-1.78-1.33-1.78s-.33-.51-.2-.63.92-.65.79-1.12a1.66,1.66,0,0,0-1.12-1.29,4.64,4.64,0,0,0-1.85-.08s-1.56.69-1.25,1a1.79,1.79,0,0,1,.63,1.07A14.56,14.56,0,0,0,35.38,65c.2.65.73,1.74,1.21,1.69s.63-.31.5-.64a13.65,13.65,0,0,1-.91-1.59c0-.25.21-.88.49-.73A7.81,7.81,0,0,1,38,65.16c.54.72,1,1.33,1.28,1.16a.65.65,0,0,0,.15-.89m-2.05-2.84a10.13,10.13,0,0,1-1.14.56c-.26.12-.41-1-.4-1.41s.51-.36.66-.35h0a2.2,2.2,0,0,1,1.11.36c.32.32-.15.74-.28.84"/><path class="cls-206" d="M40.76,62.35s-.76-1.16-1.21-1.19-.65.57-.51,1.08.45,2.28.45,2.37.17,1,.76.87.34-.7.23-1-.31-1.32-.11-1.13.87,1.19,1,1.27.88.17,1-.33a8.29,8.29,0,0,0-.28-3.11c-.31-.79-1-1.55-1.41-1.35s-.31.64-.12.93a12.26,12.26,0,0,1,1,2c.06.31-.17.68-.37.34s-.42-.82-.42-.82"/><path class="cls-206" d="M46.41,64.09c-.19-.29-.35-.49-.35-.49a.9.9,0,0,1,0-.55c.11-.19.22-.51-.07-.66a2.35,2.35,0,0,1-.76-1c-.15-.34-.85-1.83-.88-1.88s-.3-.63-.7-.48-.47,1.07-.47,1.41-.38,4-.38,4-.13,1.17.27,1,.73-.39.69-.75,0-1.23.39-1.32.67-.13.75.09A6.23,6.23,0,0,0,45.63,65a.6.6,0,0,0,.73,0,.68.68,0,0,0,0-.82m-1.87-1.42a.9.9,0,0,1-.74,0c-.17-.11.16-1.67.16-1.67.18-.17.43.44.6.71a1,1,0,0,1,0,.91"/><path class="cls-206" d="M53.11,60.2a1.76,1.76,0,0,0-1.65-.27s-1.34.82-1.44,1.73a2,2,0,0,0,1.23,2.14,1.89,1.89,0,0,0,2.3-1.14,2,2,0,0,0-.44-2.46m-.7,2.63c-.32.36-1.23.06-1.4-.49s.7-1.33.7-1.33a.8.8,0,0,1,.95.23c.26.21.07,1.23-.25,1.59"/><path class="cls-206" d="M63.76,62.06a3,3,0,0,1-.51-1.44C63.13,60,63,59.34,63,59.34s-.12-1-.45-1.16-.77.63-1.28,2.07-1.19,3.49-1.19,3.49-.17.75.2.73a.85.85,0,0,0,.75-.65c.12-.38.41-1.11.91-1s.76.18.82.38-.09,1.14.16,1.22.51.08.55-.16.08-1.62.08-1.62.4-.39.2-.57m-1.19-.16c-.06.18-.34.23-.67.18s-.31-.51-.19-.63.12-.2.14-.55.21-.62.41-.62.37,1,.37,1a3.2,3.2,0,0,1-.06.65"/><path class="cls-206" d="M66.77,59.77s1.51,0,1.65-.18.43-.71-.24-.73a11.76,11.76,0,0,0-2.81.33c-.27.17-1.87.41-1.2,1.11s1.8,1.83,2,2,.84.74.53,1.12a1.07,1.07,0,0,1-1.46.2c-.51-.37-.81-.64-.92-.5s-.76.58-.23,1a2.85,2.85,0,0,0,2.32.59c.62-.25,2.11-.94,1.48-2a8.79,8.79,0,0,0-1.83-2.06c-.23-.16-.73-.68-.39-.79a10.36,10.36,0,0,1,1.06-.2"/><path class="cls-206" d="M72.41,59.39,71,59.23a6.9,6.9,0,0,0-1.71.24c-.18.07-.67.24-.67.49s.43.52.92.34.91-.17.8.18-.88,2.79-1,3.14-.54,1.76,0,1.76.9-.83,1-1.47a21.59,21.59,0,0,1,.8-3.07c.14-.22,0-.54.4-.53s1.52,0,1.55-.35-.72-.57-.72-.57"/><path class="cls-206" d="M74.35,60.73a1,1,0,0,0-1.23.51,6.43,6.43,0,0,0-.43,3.18c.18.9.61,1.63,1.57,1.51a3.09,3.09,0,0,0,2.47-1.54,12.58,12.58,0,0,0,.85-2.83c0-.26-.06-.68-.28-.69s-.87.13-.92.58-.12,2.39-.74,2.93-1.23.77-1.57.29a2.29,2.29,0,0,1-.15-2.47c.6-.83.94-1.35.43-1.47"/><path class="cls-206" d="M78.37,66.22s-.64-.15-.76-.38-.28-.57-.54-.48-.83.74-.52,1,1.71,1.23,2.72.9,1.57-.64,1.44-1.46a6.8,6.8,0,0,0-1.34-2.37c-.31-.37-.56-1.23.2-1.12s2.09.37,2.32.34.56-.43.31-.73a2.77,2.77,0,0,0-1.77-.46c-.74,0-2.22.06-2.43.39a.94.94,0,0,0-.09,1.26c.39.55,1.41,1.72,1.5,1.95s.33,1.1,0,1.17a3.41,3.41,0,0,1-1,0"/><path class="cls-4" d="M39.32,69.51h0a.29.29,0,0,1-.29-.28V67.45a.29.29,0,0,1,.57,0v1.78a.29.29,0,0,1-.28.28"/><path class="cls-4" d="M40.27,69.38h0a.27.27,0,0,1-.27-.27V67.54a.27.27,0,0,1,.53,0v1.57a.27.27,0,0,1-.26.27"/><path class="cls-4" d="M71.75,69.34h0a.29.29,0,0,1-.29-.29V67.28a.29.29,0,0,1,.57,0v1.77a.29.29,0,0,1-.28.29"/><path class="cls-4" d="M72.7,69.21h0a.27.27,0,0,1-.27-.26V67.37a.27.27,0,0,1,.53,0V69a.26.26,0,0,1-.26.26"/><path class="cls-4" d="M44,67.92s.6.44.43.77-.64.53-.87.38-.44-.35-.63-.35-.43.4-.45.64.05.83.34.77,1.16-.07,1.29.09.22.72,0,.75a6.71,6.71,0,0,1-1,0,.67.67,0,0,0-.59.51c0,.25.16,1.17.44,1.11a2.21,2.21,0,0,0,.89-.36.84.84,0,0,1,.74-.28c.23.1.43.77,0,1a6.51,6.51,0,0,1-2.32.73c-.39-.11-.77-.27-.77-.75s.15-1.62,0-1.79-.49-.55-.27-.64.27-.55.25-.86-.36-1.52.83-1.74a2.73,2.73,0,0,1,1.72.08"/><path class="cls-4" d="M45.29,68.56,45.14,72s-.45,1.48.65,1.39S48,73.24,48,73.24s1.1-.27,1.16-.57a1.19,1.19,0,0,0-.65-1c-.31-.11-.34.32-.51.48s-1,.11-1.22.07a.54.54,0,0,1-.48-.64c.07-.42.09-2.14.2-2.34s.55-1.54-.25-1.76-.92,1-.92,1"/><path class="cls-4" d="M57.46,69.14s.53-1,0-1.2-1,.07-1.13,1-.15,3.51.89,4a2.42,2.42,0,0,0,3.19-1.43,8.16,8.16,0,0,0,.33-3.73s-.13-.5-.5-.37-.88.41-.8.84a12.82,12.82,0,0,1,0,2.77c-.13.4-.86,1.17-1.32.87a2.82,2.82,0,0,1-.71-2.76"/><path class="cls-206" d="M49,60.14a3.46,3.46,0,0,0-1.56-1c-.74-.11-1.59,0-1.63.25s-.09.47.17.57.48.83.61,1.12a15,15,0,0,1,.45,2.12c0,.19-.26.15-.36.32s0,1.18.67,1,1.78-.72,2.08-1.42A2.9,2.9,0,0,0,49,60.14m-.93,3.11c-.38.21-.51-.44-.48-.76a1,1,0,0,0-.11-.72,5.17,5.17,0,0,1-.19-1.44c0-.21.55,0,.55,0A3.13,3.13,0,0,1,49,61.37c.23.42-.47,1.67-.85,1.88"/><path class="cls-206" d="M60.24,59.41a3.81,3.81,0,0,0-2.12-1.32,14.19,14.19,0,0,0-1.82,0s-1.19.47-1.09.75.32.13.41.35a17.43,17.43,0,0,1,.05,2.27V63.5s.06,1.09.66.92a1.08,1.08,0,0,0,.78-1.25c-.15-.4-.31-.9.06-1a8.45,8.45,0,0,0,2.24-1c.32-.34,1.26-1,.83-1.73M58,61a1.16,1.16,0,0,1-1.09.09c-.23-.16-.13-.65,0-.78s-.07-1.07,0-1.33,1.2.34,1.2.34a5.5,5.5,0,0,1,1,.56c.28.24-.74.91-1,1.12"/><path class="cls-206" d="M84.72,64.6a1.5,1.5,0,0,0-1.55-.49,3.56,3.56,0,0,0-2,1.58c0,.28-.39,1.67.77,2a2.25,2.25,0,0,0,2.21-.15c.38-.32,1.53-1.85.59-3M84,66.06a1.17,1.17,0,0,1-.58.81c-.53.34-1,.19-1.13-.17a1.18,1.18,0,0,1,.34-1.17,1.15,1.15,0,0,1,1.19-.19c.27.16.18.72.18.72"/><path class="cls-4" d="M55.77,68.12a6.2,6.2,0,0,0-1.42-.81,4.28,4.28,0,0,0-3.09.09s-.53.28-.15.63.6.51.57.69-.35,3.28-.33,3.59.14,1.24.75,1.24a1.19,1.19,0,0,0,1-1.21c-.11-.32-.51-.86-.16-1s2.12-.61,2.54-1.21.75-1.61.31-2M54.4,69.58a7.46,7.46,0,0,1-1.19.7c-.4.18-.55-.66-.53-.83s.11-.82.15-1.17.91.08.91.08a5,5,0,0,1,.92.44c.29.2-.15.67-.26.78"/><path class="cls-4" d="M64.74,67.31A3.8,3.8,0,0,0,62.27,67c-1.17.36-1.26.71-1.1.93s.59.39.49.71a21.06,21.06,0,0,0-.31,3.24c.08.42,0,1.58.64,1.52s1.1-.53.95-1.08-.23-1.13.06-1.21,2.73-.62,2.87-1.86.07-1.21-1.13-2m-.53,2.18c-.2.15-.92.64-1.32.57s0-1.43,0-1.78.75-.11.75-.11a8,8,0,0,1,.86.42c.33.21,0,.75-.24.9"/><path class="cls-4" d="M71,69a3.8,3.8,0,0,0-1.5-1.46s-2-.11-2.69.7S65.51,71,66.22,72a2.42,2.42,0,0,0,3.33.63c1-.77,2-2.62,1.46-3.63m-1.88,2.22a1,1,0,0,1-1.46.18,2.3,2.3,0,0,1,.16-2c.35-.61,1.32-.21,1.32-.21.49.3.27,1.49,0,2"/><path class="cls-254" d="M16.57,35.4s-1.27,3.71-1.74,3.89-1.38-.8-1.36-2.8.33-4.21,3.42-4.62"/><g class="cls-250"><g class="cls-255"><path d="M4.38,21.77s.26,3.07.26,3.32.1,2.06.1,2.19,0,1.68,0,1.68.4-.41.5-.53.53.36.56.23.07-1.88,0-2.59-.3-2.49-.3-2.92-.16-2-.16-2-.18-.34-.34-.22-.34.2-.2.37.39.47-.43.47"/></g></g><g class="cls-250"><g class="cls-256"><path d="M11,19.85s.39,0,.36,1,.28,5.59.28,5.59a4.57,4.57,0,0,0,.07.93,3.39,3.39,0,0,0,.34-.33,1.12,1.12,0,0,1,.26-.27,1.3,1.3,0,0,1,.32-.06c.07,0,0-2.25,0-2.25l-.2-5.35V19a6.33,6.33,0,0,0-1.63.23s-.28.14-.08.28a1.21,1.21,0,0,1,.31.32"/></g></g><path class="cls-227" d="M14.72,32.6h0a.41.41,0,0,1-.39-.43L15,19a.43.43,0,0,1,.44-.39.42.42,0,0,1,.39.44l-.66,13.17a.4.4,0,0,1-.43.39"/><path class="cls-218" d="M14.72,32.6h0a.41.41,0,0,1-.39-.43L15,19a.43.43,0,0,1,.44-.39.42.42,0,0,1,.39.44l-.66,13.17A.4.4,0,0,1,14.72,32.6Z"/><path class="cls-206" d="M83.79,9.14s-1.85,1.29-1.27,1.43a12.72,12.72,0,0,0,4-.88c.81-.37,1.62-.9,1.85-1s.6-.57.28-.67a13,13,0,0,0-2.8.37c-.27.12-2.1.72-2.1.72"/><path class="cls-206" d="M81.05,13.13a10.36,10.36,0,0,0-1.14,1.57c0,.25-.47.59-.6.46a2.82,2.82,0,0,1,0-1.56c.17-.26,1.61-1.4,1.78-.47"/><path class="cls-257" d="M91.59,20.24s.38.85.13.93a1.7,1.7,0,0,0-.55.43l5.88-.38,2.63-.17s-1.74-.81-1.82-1.57a5.84,5.84,0,0,1-.13-1.86c.13-.43.13-1.1-.21-.81a9.1,9.1,0,0,0-1.65,2,4.23,4.23,0,0,1-1.44,1.74c-.39.08-1.53.42-1.87.21s-1.14-.89-1-.51"/><path class="cls-218" d="M97.39,17.49s-2.29.76-.81,3.94"/><path class="cls-207" d="M87.8,81.46s5.59-2.17,0-7.46"/><path class="cls-207" d="M23.83,82.42s-6.61-4.24.17-7.25"/></g></g></svg>