<svg xmlns="http://www.w3.org/2000/svg" viewBox="0 0 292.24 78.18"><defs><style>.cls-1{fill:#ff9e07;}</style></defs><title>solo texto</title><g id="Capa_2" data-name="Capa 2"><g id="Capa_1-2" data-name="Capa 1"><path class="cls-1" d="M10.47,26.09s6.27,9,2.42,11.56c0,0-3.13,1-4.28-1.72A23.41,23.41,0,0,1,7.19,29.8s-.43-3.28-2.71-3.14S-.8,29.51.2,31.8s5.56,14.12,7,16.69,3.71,5.14,5.7,5A2.41,2.41,0,0,0,15,49.78c-1-1.86-4.42-6.29-3.57-7.57s3.29-2.57,4.57-.43,5.28,9.85,7.42,10.13,5-1,4-2.13S21.6,39.35,20.88,37.5s-3-8.56-3-10.13-1.57-5.71-5-5.56-2.42,4.28-2.42,4.28"/><path class="cls-1" d="M40.31,29.22s-2.16-5.06-5.89-5.15a11.11,11.11,0,0,0-9.89,5.65c-2,3.74-2,10.47,1.07,13.21s9.07,3.32,11.06,1.75,8.47-5.9,3.65-15.46m-5,10.89c-.75,1.16-4.41.25-5.32-.83s-1.91-5.49.41-8.07,5.41.09,5.41.09c2.74,4.32.25,7.65-.5,8.81"/><path class="cls-1" d="M63,37c-.91-1-6.66-8.94-6.66-8.94s-1.65-2.57-1-3.19,4.61-3.25,4-5.59-2.17-5.69-5.63-6.49-8.21-.91-9.3-.4c0,0-7.8,3.47-6.25,4.9s3.13,3.42,3.18,5.36A66.23,66.23,0,0,0,43,34.59c1,3.3,3.64,8.77,6,8.49s3.19-1.54,2.51-3.2S47,33.16,47,31.91,48,27.47,49.4,28.26s3.7,3.82,6.43,7.41,4.9,6.67,6.44,5.81A3.2,3.2,0,0,0,63,37M52.7,22.8A58.76,58.76,0,0,1,47,25.59c-1.31.57-2-4.84-2-7.06,0-1.87,2.52-1.85,3.29-1.79l.24,0s4,.23,5.58,1.82-.74,3.71-1.43,4.22"/><path class="cls-1" d="M69.94,21.57s-3.82-5.8-6.09-6S60.6,18.46,61.3,21s2.27,11.47,2.27,11.89.85,5.24,3.82,4.39,1.7-3.54,1.13-4.81S67,25.82,68,26.81s4.39,5.94,5.09,6.36,4.39.85,5-1.69.14-11.61-1.41-15.57-4.82-7.79-7.09-6.8S68,12.36,69,13.78s4.67,8.64,5,10.2-.85,3.39-1.84,1.69-2.12-4.1-2.12-4.1"/><path class="cls-1" d="M98.29,30.28a28.31,28.31,0,0,0-1.8-2.42,4.61,4.61,0,0,1,.07-2.76c.55-1,1.11-2.55-.34-3.31s-3-3.24-3.8-5S88.14,7.65,88,7.36,86.49,4.2,84.49,5s-2.35,5.39-2.35,7.11-1.93,20.22-1.93,20.22-.62,5.87,1.38,5.17,3.66-1.93,3.45-3.72.14-6.21,1.93-6.63,3.38-.68,3.8.42,2.62,6.48,3.58,7.1,2.83.77,3.66-.2a3.49,3.49,0,0,0,.28-4.14M88.9,23.17c-.62.49-2.9.83-3.72.28S86,15,86,15c.9-.84,2.14,2.21,3,3.59s.56,4.07-.07,4.55"/><path class="cls-1" d="M131.87,10.81c-3.29-2-6.9-2.44-8.28-1.38,0,0-6.69,4.14-7.22,8.7s2,9.56,6.15,10.73a9.55,9.55,0,0,0,11.58-5.73c1.91-5.2,1.06-10.3-2.23-12.32M128.37,24c-1.6,1.81-6.16.32-7-2.44s3.5-6.69,3.5-6.69c2.34-.95,3.51.11,4.78,1.17s.32,6.16-1.27,8"/><path class="cls-1" d="M185.3,20.13c-1-.89-2-3.86-2.57-7.22s-1.2-6.42-1.2-6.42S181,1.25,179.27.65,175.41,3.81,172.84,11s-5.93,17.5-5.93,17.5-.89,3.76,1,3.65a4.16,4.16,0,0,0,3.75-3.26c.6-1.87,2.08-5.53,4.55-5s3.85.9,4.15,1.88-.49,5.74.79,6.13,2.57.4,2.77-.79.39-8.11.39-8.11,2-2,1-2.86m-6-.83c-.32.93-1.7,1.16-3.4.93s-1.54-2.55-.92-3.17.61-1,.69-2.78,1.08-3.09,2.08-3.09,1.86,4.87,1.86,4.87a15.27,15.27,0,0,1-.31,3.24"/><path class="cls-1" d="M200.42,8.65s7.56.07,8.26-.93,2.16-3.55-1.24-3.63-12.66.78-14.05,1.62-9.42,2.09-6,5.56,9,9.19,10.19,10.2,4.24,3.7,2.7,5.63a5.41,5.41,0,0,1-7.33,1c-2.55-1.85-4.1-3.24-4.64-2.54s-3.78,2.93-1.15,5.25,8.56,4.17,11.65,2.93,10.59-4.71,7.42-9.8A44,44,0,0,0,197,13.59c-1.16-.77-3.63-3.4-1.93-3.94a42.46,42.46,0,0,1,5.33-1"/><path class="cls-1" d="M228.68,6.72s-5.41-.55-7.26-.78a34.29,34.29,0,0,0-8.58,1.16c-.92.39-3.39,1.24-3.39,2.47s2.16,2.63,4.63,1.7,4.56-.85,4,.93-4.4,14-4.86,15.75-2.71,8.81.22,8.81,4.56-4.18,5-7.34,3.33-14.37,4-15.44-.15-2.71,2-2.63,7.65.23,7.81-1.78-3.63-2.85-3.63-2.85"/><path class="cls-1" d="M238.41,13.43s-4.48-1.31-6.18,2.55-3.09,11.5-2.16,16,3.09,8.19,7.87,7.58,10.12-2.94,12.43-7.73a65.87,65.87,0,0,0,4.25-14.21c.16-1.31-.3-3.39-1.39-3.47s-4.4.69-4.63,2.93-.62,12-3.71,14.67-6.17,3.86-7.87,1.47-3.79-8.19-.77-12.36,4.7-6.79,2.16-7.41"/><path class="cls-1" d="M258.56,41s-3.17-.78-3.78-1.93-1.39-2.85-2.7-2.39-4.18,3.7-2.63,5.1S258,48,263.12,46.32,271,43.09,270.3,39s-5.18-10-6.72-11.89-2.78-6.17,1-5.63,10.5,1.85,11.66,1.69S279,21,277.79,19.54s-5.18-2.32-8.89-2.32-11.12.3-12.19,1.93-2.48,3.55-.46,6.33,7.09,8.65,7.56,9.8,1.62,5.48-.23,5.88a17.82,17.82,0,0,1-5-.16"/><path class="cls-1" d="M62.7,57.47h0a1.43,1.43,0,0,1-1.43-1.41v-8.9a1.44,1.44,0,0,1,1.43-1.43,1.42,1.42,0,0,1,1.42,1.43v8.9a1.42,1.42,0,0,1-1.42,1.41"/><path class="cls-1" d="M67.47,56.83h0a1.34,1.34,0,0,1-1.33-1.33V47.61a1.33,1.33,0,1,1,2.66,0V55.5a1.34,1.34,0,0,1-1.33,1.33"/><path class="cls-1" d="M225.35,56.63h0a1.43,1.43,0,0,1-1.42-1.43V46.3a1.42,1.42,0,0,1,2.84,0v8.9a1.42,1.42,0,0,1-1.42,1.43"/><path class="cls-1" d="M230.12,56h0a1.34,1.34,0,0,1-1.33-1.33V46.76a1.33,1.33,0,1,1,2.66,0v7.89A1.34,1.34,0,0,1,230.12,56"/><path class="cls-1" d="M86,49.49s3,2.21,2.2,3.86S85,56,83.76,55.27s-2.21-1.74-3.12-1.74-2.2,2-2.29,3.22.27,4.12,1.74,3.85,5.78-.37,6.42.46,1.11,3.57-.18,3.76a30.44,30.44,0,0,1-5.14-.19,3.42,3.42,0,0,0-2.94,2.58c-.09,1.27.83,5.87,2.21,5.59S84.31,71.7,85,71s2.48-1.83,3.67-1.37,2.2,3.86.28,4.86-9.73,4.23-11.66,3.67-3.85-1.37-3.85-3.76.73-8.17-.09-9-2.48-2.74-1.38-3.2,1.38-2.76,1.29-4.32-1.83-7.61,4.13-8.72,8.62.37,8.62.37"/><path class="cls-1" d="M92.66,52.7l-.74,17.07s-2.29,7.44,3.22,7,10.91-.55,10.91-.55,5.52-1.38,5.79-2.85-1.65-4.31-3.21-4.86-1.75,1.56-2.58,2.38-5,.55-6.14.37A2.71,2.71,0,0,1,97.52,68c.37-2.11.47-10.74,1-11.74s2.76-7.71-1.28-8.82-4.59,5.23-4.59,5.23"/><path class="cls-1" d="M153.68,55.64s2.66-5,.28-6-4.87.36-5.69,5.13-.74,17.62,4.49,20,12.67.46,16-7.16,1.65-18.72,1.65-18.72-.64-2.48-2.47-1.83-4.41,2-4,4.21.64,11.84,0,13.87-4.31,5.86-6.6,4.4-4.87-6.79-3.59-13.86"/><path class="cls-1" d="M111.49,10.49s-4.14-4.35-7.86-4.88-8,.21-8.18,1.27-.42,2.34.86,2.87,2.43,4.14,3.07,5.62A75.81,75.81,0,0,1,101.61,26c0,1-1.27.74-1.81,1.59s.11,6,3.41,4.78,8.91-3.61,10.4-7.11,1.91-11.25-2.12-14.76M106.81,26.1c-1.91,1.06-2.55-2.24-2.44-3.82s.11-2.87-.53-3.62-1-6.15-1-7.22,2.76-.1,2.76-.1c1.07.32,4.25,3.18,5.42,5.31s-2.33,8.38-4.25,9.45"/><path class="cls-1" d="M167.64,6.85C165.45,3.4,159.54.53,157,.18a69.91,69.91,0,0,0-9.13,0s-6,2.35-5.46,3.73,1.61.63,2.06,1.78.24,10.51.24,11.38V27.35s.28,5.47,3.33,4.6,4.65-4.25,3.9-6.26-1.55-4.54.29-5.11,9.65-3.34,11.26-5,6.32-5.23,4.14-8.68m-11.09,7.7c-1.49,1-4.31,1.26-5.46.46s-.63-3.28-.17-3.91-.35-5.4.05-6.67,6,1.67,6,1.67a28.44,28.44,0,0,1,4.77,2.82c1.37,1.2-3.74,4.59-5.23,5.63"/><path class="cls-1" d="M290.42,32.84a7.55,7.55,0,0,0-7.75-2.46c-5,1.23-9.93,6.58-10.14,8s-2,8.37,3.84,10.21,9.18.83,11.1-.75,7.68-9.25,2.95-14.95m-3.57,7.34a5.88,5.88,0,0,1-2.88,4c-2.67,1.71-4.8,1-5.68-.82s.34-4.46,1.71-5.9a5.87,5.87,0,0,1,6-1c1.37.83.88,3.63.88,3.63"/><path class="cls-1" d="M145.24,50.5c-2.2-2-7.16-4-7.16-4s-8.9-3.2-15.51.46c0,0-2.65,1.38-.73,3.12s3,2.57,2.84,3.49S122.94,70,123,71.52s.74,6.24,3.76,6.24,5.52-4.41,5-6.06-2.57-4.31-.82-5,10.64-3,12.75-6.06,3.76-8.08,1.56-10.1m-6.88,7.34a36.88,36.88,0,0,1-6,3.49c-2,.92-2.75-3.31-2.66-4.13s.55-4.12.74-5.87,4.59.37,4.59.37a28.91,28.91,0,0,1,4.58,2.2c1.47,1-.73,3.39-1.28,3.94"/><path class="cls-1" d="M190.2,46.46s-6.51-3.21-12.39-1.37-6.33,3.58-5.5,4.68,2.94,1.93,2.48,3.58-1.93,14.13-1.57,16.24.1,7.89,3.22,7.62,5.5-2.67,4.77-5.42-1.19-5.69.28-6.06,13.67-3.12,14.4-9.35.37-6.06-5.69-9.92m-2.66,10.92c-1,.74-4.58,3.22-6.61,2.85s-.27-7.16-.27-8.9,3.76-.55,3.76-.55a39.16,39.16,0,0,1,4.32,2.11c1.65,1-.19,3.76-1.2,4.49"/><path class="cls-1" d="M221.68,55a18.89,18.89,0,0,0-7.53-7.34s-10.1-.55-13.48,3.49-6.61,13.67-3,18.9,11.56,7,16.7,3.12S224.43,60.05,221.68,55m-9.46,11.1c-1.46,2.57-6.05,2.57-7.34.92s-.91-6.89.83-9.91,6.61-1,6.61-1c2.48,1.47,1.37,7.43-.1,10"/></g></g></svg>